<?xml version="1.0" encoding="utf-8"?>
<!-- Generator: Adobe Illustrator 22.1.0, SVG Export Plug-In . SVG Version: 6.00 Build 0)  -->
<svg version="1.1" id="logos_carrefour" xmlns="http://www.w3.org/2000/svg" xmlns:xlink="http://www.w3.org/1999/xlink" x="0px"
	 y="0px" viewBox="0 0 566.9 308.3" style="enable-background:new 0 0 566.9 308.3;" xml:space="preserve">
<g id="g30302" transform="translate(15.41695,-60.670254)">
	<g id="g3099" transform="matrix(1.9825307,0,0,1.9825307,166.45118,131.02706)">
		<path id="path331" style="fill:#FFFFFF;" d="M-16.6,85.5c0,7.1,4.9,11.2,10.2,11.2c4.8,0,8.1-3.3,8.1-6.1c0-1.5-0.9-2.6-2.1-2.6
			s-2.3,0.8-2.3,2.3c0,0.9,0.5,1.4,0.9,1.8c-0.6,1.2-2,2.3-4.1,2.3c-3.5,0-6.1-3.7-6.1-8.9c0-5.3,2.4-9,6-9c2.1,0,3.5,1,4.1,2.3
			c-0.4,0.4-0.9,0.9-0.9,1.8c0,1.4,1,2.3,2.3,2.3c1.2,0,2.1-1.1,2.1-2.6c0-2.8-3.3-6.1-8.1-6.1C-11.9,74.2-16.6,78.8-16.6,85.5
			 M115.3,83.3c0.1,1,0.9,1.6,1.9,1.6c1.2,0,1.9-1.1,1.9-2.1c0-1.5-1.2-2.2-2.3-2.2c-1.3,0-2.7,1-3.6,2.5h-0.1
			c-0.2-1.3-0.9-2.3-2.2-2.3c-0.3,0-0.6,0.1-1,0.2c-1.1,0.3-2.7,1.2-2.1,2.7c1.6-0.3,2.1,0.2,2.1,1.6v6.5c0,1.3-0.2,1.8-0.6,2.2
			c-0.4,0.3-0.9,0.5-1.1,0.5c-0.6,1.4,0.6,1.8,3.7,1.8s4.2-0.4,3.5-1.8c-0.3-0.1-1.1-0.2-1.5-0.5c-0.4-0.4-0.6-0.9-0.6-2.2v-3.9
			C113.2,84.4,114.5,83.5,115.3,83.3 M40.9,83.3c0.1,1,0.9,1.6,1.8,1.6c1.2,0,1.9-1.1,1.9-2.1c0-1.5-1.2-2.2-2.3-2.2
			c-1.3,0-2.8,1-3.6,2.5h-0.1c-0.3-1.3-0.9-2.3-2.2-2.3c-0.3,0-0.6,0.1-1,0.2c-1.1,0.3-2.8,1.2-2.2,2.7c1.6-0.3,2.1,0.2,2.1,1.6v6.5
			c0,1.3-0.2,1.8-0.6,2.2c-0.4,0.3-0.9,0.5-1.1,0.5c-0.6,1.4,0.6,1.8,3.7,1.8c3.1,0,4.2-0.4,3.5-1.8c-0.3-0.1-1.1-0.2-1.5-0.5
			c-0.4-0.4-0.6-0.9-0.6-2.2v-3.9C38.8,84.4,40,83.5,40.9,83.3 M66.6,81.1h4c0.5,1.1-0.2,2.1-1.1,2.2c-0.3,0-0.6,0-0.9,0
			c-0.7,0-1.5-0.1-2-0.1v8.7c0,1.3,0.2,1.8,0.7,2.2c0.4,0.3,1.4,0.5,1.7,0.5c0.6,1.4-0.9,1.8-4,1.8s-4.4-0.4-3.7-1.8
			c0.3-0.1,0.7-0.2,1.1-0.5c0.4-0.4,0.6-0.9,0.6-2.2v-8.7l-2.3-0.1c-0.5-1.1,0.2-2,1.1-2H63V80c0-2.3,0.4-3.5,1-4.4
			c0.9-1.3,2.3-2.3,4.7-2.3c2.9,0,5.3,1.4,5.3,3.4c0,0.9-0.6,2-1.9,2c-1,0-1.8-0.8-1.8-1.8c0-0.4,0.2-0.9,0.4-1.1
			c-0.3-0.4-1-0.6-1.7-0.6c-1.9,0-2.3,1.4-2.3,3.2L66.6,81.1L66.6,81.1z M28.2,83.3c0.1,1,0.9,1.6,1.8,1.6c1.2,0,1.9-1.1,1.9-2.1
			c0-1.5-1.2-2.2-2.4-2.2c-1.3,0-2.8,1-3.6,2.5h-0.1c-0.3-1.3-0.9-2.3-2.2-2.3c-0.3,0-0.6,0.1-1,0.2c-1.1,0.3-2.8,1.2-2.2,2.7
			c1.6-0.3,2.1,0.2,2.1,1.6v6.5c0,1.3-0.2,1.8-0.6,2.2c-0.4,0.3-0.9,0.5-1.1,0.5c-0.6,1.4,0.6,1.8,3.7,1.8s4.2-0.4,3.5-1.8
			c-0.3-0.1-1.1-0.2-1.5-0.5c-0.4-0.4-0.6-0.9-0.6-2.2v-3.9C26,84.4,27.3,83.5,28.2,83.3 M83.3,88.9c0,3.6-1.6,5.6-3.8,5.6
			c-2,0-3.9-2-3.9-6.3c0-3.4,1.4-5.5,3.7-5.5S83.3,85,83.3,88.9 M17.1,92.8c0,1.2,0.8,1.6,2.2,1.8c-0.1,1.4-1.1,1.9-2.2,2.1
			c-1.3,0.1-2.5-0.5-3.1-1.8c-0.6,0.5-2.3,1.9-4.6,1.9c-3.1,0-5.4-2.1-5.4-4.9c0-3,2.6-4.8,6.3-4.8c1.3,0,2.6,0.3,3.4,0.7v-2
			c0-1.8-0.8-2.9-2.8-2.9c-0.4,0-1.3,0.1-2.1,0.4c0.1,0.3,0.1,0.6,0.1,0.9c0,1.1-0.7,2-1.9,2c-1,0-1.8-0.8-1.8-1.9
			c0-2,2.5-3.4,5.9-3.4c2.7,0,4.4,0.6,5.2,1.8c0.8,1,0.8,2.5,0.8,4.7L17.1,92.8L17.1,92.8z M87.3,88.6c0-4.7-3.3-7.9-7.8-7.9
			c-4.2,0-7.9,3.2-7.9,7.9c0,4.8,3.5,8,7.8,8C83.9,96.6,87.3,93.4,87.3,88.6 M94.4,88.3c0,3.6,0.5,5.5,2.9,5.5
			c2.6,0,3.3-2.3,3.3-4.4v-4c0-1.4-0.6-1.9-2.1-1.7c-0.6-1.5,1.4-2.5,2.6-2.7c0.4-0.1,0.7-0.1,1-0.1c1.6,0,2.2,1,2.2,2.5
			c0,0.6-0.1,1.6-0.1,5.8c0,1.8,0,2.7,0,3c0,1.4,0.6,2.1,2.1,1.9c0.6,1.5-1.4,2.3-2.6,2.5c-0.4,0.1-0.7,0.1-0.9,0.1
			c-1.5,0-1.9-1-2.2-2.4c-0.2,0.3-0.4,0.5-0.8,0.9c-1,0.9-2.3,1.5-3.8,1.5c-1.6,0-3-0.6-3.9-1.6c-1.3-1.6-1.3-3.6-1.3-6.6v-2.9
			c0-1.4-0.6-1.9-2.1-1.7C88,82.2,90,81.2,91.1,81c0.4-0.1,0.7-0.1,1-0.1c1.6,0,2.2,1,2.2,2.5L94.4,88.3L94.4,88.3z M54.9,86.7
			c0.7,0,0.7-0.4,0.7-0.9c0-1.6-1.3-3-3.1-3c-2.4,0-3.4,2-3.5,3.9C49,86.7,54.9,86.7,54.9,86.7z M49,88.6c0.1,3,2,5.1,5.3,5.1
			c2,0,3.5-1.1,4-1.8c0.3,0.2,0.5,0.5,0.5,1.1c0,1.5-1.8,3.5-6,3.5s-7.6-3.3-7.6-7.7c0-4.8,3.2-8.3,7.8-8.3c4.3,0,6.2,3.1,6.2,5.8
			c0,0.8-0.2,1.5-0.5,2.1H49V88.6z M10.9,88.9c-1.8,0-3,0.9-3,2.6c0,1.6,1.1,2.7,2.8,2.7c1.1,0,2.2-0.6,2.9-1.5v-2.3
			C13.6,89.7,12.6,88.9,10.9,88.9"/>
		<path id="path335" style="fill:#FFFFFF;" d="M28.9-9.2L-0.8,19.5c-1.5,1.3-2.4,2.7-2.4,4.9c0,2.1,0.9,3.6,2.4,4.9L28.9,58
			c0.2,0.2,0.4,0.3,0.5,0.3c0.3,0,0.5-0.3,0.5-0.6c0-0.2-0.1-0.4-0.3-0.6c-7-8.7-12-18.6-12-32.6s5.1-24.2,12-32.8
			c0.2-0.2,0.3-0.4,0.3-0.6c0-0.3-0.2-0.6-0.5-0.6C29.3-9.5,29.1-9.4,28.9-9.2"/>
		<path id="path339" style="fill:#FFFFFF;" d="M51.9-12.2c-11.6,0-16.2,16.5-16.2,36.1s4.5,35.9,16.2,35.9c7,0,12.9-4.1,12.9-7.4
			c0-0.7-0.3-1.4-0.9-2.1c-3.3-3.2-4.6-6.4-4.6-9.2c0-5.4,4.6-9.4,8.9-9.4c5.9,0,9.4,4.6,9.4,10.7c0,5.7-2.4,10.5-5.1,14.3
			c-0.1,0.2-0.2,0.3-0.2,0.5c0,0.3,0.2,0.5,0.4,0.5c0.2,0,0.3-0.1,0.6-0.3L103,28.7c1.5-1.3,2.4-2.8,2.4-4.9s-0.9-3.6-2.4-4.9
			L73.4-9.8c-0.2-0.2-0.4-0.3-0.6-0.3c-0.3,0-0.4,0.2-0.4,0.5c0,0.2,0,0.3,0.2,0.5c2.6,3.8,5.1,8.6,5.1,14.2c0,6-3.5,10.7-9.4,10.7
			c-4.3,0-9-4-8.9-9.4c0-2.8,1.3-6,4.6-9.2c0.6-0.6,0.9-1.3,0.9-2.1C64.8-8.2,58.9-12.2,51.9-12.2"/>
	</g>
</g>
</svg>
