<?xml version="1.0" encoding="utf-8"?>
<!-- Generator: Adobe Illustrator 22.1.0, SVG Export Plug-In . SVG Version: 6.00 Build 0)  -->
<svg version="1.1" id="logos_costa" xmlns="http://www.w3.org/2000/svg" xmlns:xlink="http://www.w3.org/1999/xlink" x="0px"
	 y="0px" viewBox="0 0 566.9 308.3" style="enable-background:new 0 0 566.9 308.3;" xml:space="preserve">
<style type="text/css">
	.st0{fill:#FFFFFF;}
</style>
<path class="st0" d="M320.5,184.3c2.5-10.2-0.6-19.8-8.4-31.6c-7.5-11.3-10.7-17-10.3-25.9c0.5-11.8,8.1-21.3,19.6-28.4H285
	c-13.3,9.8-18.4,23.7-18.3,33.4c0.1,8.9,2.9,15.4,8.8,23.8c4.8,6.9,9.6,13,9.8,21.1c0.2,10.3-7.5,19-17.6,25.7l30.8,8.4
	C308,205.1,317.9,194.7,320.5,184.3L320.5,184.3z M341.4,124.5h19.5v68.7h28.5v-68.7h19.5V99.8h-67.5V124.5z M137.5,181.4L118,161.9
	c-8.4,8.4-22.1,8.3-30.5-0.1c-8.4-8.4-8.3-22.1,0.1-30.5c8.4-8.4,22.1-8.3,30.5,0.1l0.1,0.1l19.5-19.5
	c-19.1-19.3-50.2-19.5-69.5-0.4s-19.5,50.2-0.4,69.5c19.1,19.3,50.2,19.5,69.5,0.4L137.5,181.4z M458.4,155.7l7-29.3h0.3l6.9,29.3
	H458.4z M483.1,99.8h-34.3l-29.6,93.4h30.4l3.9-15.2h24.6l3.9,15.2h31.4L483.1,99.8z M197.6,168.2c-11.9,0-21.5-9.7-21.5-21.6
	c0-11.9,9.7-21.5,21.6-21.5c11.9,0,21.5,9.7,21.5,21.5c0,11.9-9.6,21.6-21.5,21.6C197.7,168.2,197.7,168.2,197.6,168.2z M197.6,97.5
	c-27.1,0-49.1,22-49.1,49.2s22,49.1,49.2,49.1c27.1,0,49.1-22,49.1-49.2C246.8,119.5,224.8,97.5,197.6,97.5L197.6,97.5z"/>
</svg>
