<?xml version="1.0" encoding="utf-8"?>
<!-- Generator: Adobe Illustrator 22.1.0, SVG Export Plug-In . SVG Version: 6.00 Build 0)  -->
<svg version="1.1" id="logos_credo" xmlns="http://www.w3.org/2000/svg" xmlns:xlink="http://www.w3.org/1999/xlink" x="0px"
	 y="0px" viewBox="0 0 566.9 308.3" style="enable-background:new 0 0 566.9 308.3;" xml:space="preserve">
<path style="fill:#FFFFFF;" d="M219.1,176.7c-0.1,0-7.4,5.9-11.9,7.6c-4.7,1.8-9.7,2.7-14.7,2.7c-3.6,0-7.2-0.7-10.6-2
	c-3.3-1.2-6.3-3.2-8.7-5.9c-2.6-2.9-4.6-6.3-5.9-9.9c-1.6-4.8-2.4-9.8-2.3-14.8c-0.1-4.9,0.6-9.8,2.1-14.6c1.2-3.8,3.2-7.2,5.7-10.2
	c2.4-2.7,5.4-4.7,8.7-6c3.5-1.3,7.3-2,11.1-2c4.8-0.1,9.6,0.8,14.2,2.5c4.3,1.7,11.2,6.9,11.2,6.9l2.4,1.8v-17.2l-0.8-0.4
	c-5.7-2.8-7.7-3.5-12.2-4.6c-4.5-1.1-9.2-1.7-13.9-1.7c-6-0.1-11.9,0.9-17.5,2.9c-5.1,1.9-9.8,4.9-13.6,8.8c-3.9,4.1-7,9.1-8.8,14.5
	c-2.1,6.2-3.1,12.7-3.1,19.2c-0.1,6.7,1,13.4,3.1,19.8c1.9,5.3,4.9,10.2,8.8,14.3c3.8,3.8,8.5,6.7,13.6,8.4
	c5.5,1.9,11.4,2.8,17.2,2.7c3.1,0,6.2-0.3,9.2-0.8c2.8-0.6,5.3-1.1,7.7-1.8c2.8-0.8,5-1.8,6.9-2.5l1.8-1l2.8-1.5l0.1-1v-15.8
	L219.1,176.7z"/>
<path style="fill:#FFFFFF;" d="M355.1,123.5v-12.9h-58.5v87.6h58.5v-12.9h-44.4v-25.6h44.4v-12.9h-44.4v-23.4H355.1z"/>
<path style="fill:#FFFFFF;" d="M428.4,132.4L428.4,132.4c-3.3-6.1-8.1-11.3-14-15c-3.9-2.3-8.3-4-12.7-5c-4.9-1.3-11.6-1.8-20-1.8
	h-22.6v87.6h22.8c6.4,0.1,12.7-0.4,19-1.7c4.7-1,9.2-2.8,13.3-5.3c5.8-3.8,10.6-9,13.9-15.1c3.5-6.6,5.3-14.1,5.2-21.6
	C433.5,146.9,431.8,139.3,428.4,132.4z M382.3,185.4h-9.1v-62.2h9.1c4.4,0,8.8,0.3,13.2,1.1c3.6,0.7,7,2,10.2,3.8
	c4.2,2.3,7.6,5.8,9.8,10.1c2.2,4.3,3.4,9.7,3.4,16.1s-1,11.6-2.9,15.8c-2,4.1-5.1,7.5-9,9.9c-3.2,2.1-6.8,3.5-10.6,4.2
	C391.7,185.1,387,185.5,382.3,185.4z"/>
<path style="fill:#FFFFFF;" d="M515,135.2c-1.6-5.3-4.4-10.1-8.1-14.3c-3.6-3.8-7.9-6.8-12.7-8.8c-5.3-2.1-11-3.2-16.8-3.1
	c-5.7-0.1-11.3,1-16.5,3.1c-4.9,2-9.2,5-12.8,8.8c-3.6,4.2-6.4,9.1-8.3,14.4c-3.7,12.4-3.7,25.6,0,37.9c1.7,5.3,4.4,10.1,8.1,14.3
	c3.5,3.9,7.9,6.9,12.9,8.8c5.3,2.1,11,3.1,16.7,3.1c5.7,0.1,11.3-0.9,16.6-3c4.9-2,9.2-5.1,12.7-9c3.7-4.1,6.4-8.9,8.1-14.1
	c2-6.1,3-12.5,2.9-19C517.9,147.9,516.9,141.5,515,135.2z M503.4,154.2c0,10.7-2.4,18.8-7.1,24.4c-4.8,5.6-10.9,8.3-18.9,8.3
	s-14.1-2.7-18.9-8.3s-7.1-13.7-7.1-24.4s2.4-18.6,7-24.2c4.6-5.6,10.9-8.4,19-8.4s14.3,2.7,18.9,8.4
	C500.8,135.8,503.4,143.8,503.4,154.2L503.4,154.2z"/>
<path style="fill:#FFFFFF;" d="M124.3,154.1l-25.1-43.4l-25.1,43.4l-25.1,43.4h100.2L124.3,154.1 M100.9,120.3l41,71.1l-41-23.7
	L100.9,120.3 M97.6,120.3v47.3l-41,23.8L97.6,120.3 M58.2,194.2l41.2-23.7l41,23.8L58.2,194.2z"/>
<path style="fill:#FFFFFF;" d="M266.7,160.3c4.6-2,8.6-5.1,11.6-9c3.2-4.3,4.9-9.8,4.9-16.2c0.1-4.1-0.8-8.3-2.8-11.9
	c-1.9-3.2-4.6-5.9-7.7-7.8c-3-1.8-6.2-3.1-9.7-3.8c-4.3-0.7-8.6-1.1-13-1h-25.2v87.6H239v-33.6h13.6c0.8,1.1,24.1,33.6,24.1,33.6
	h16.7C293.3,198.1,268.5,163,266.7,160.3z M268.7,135.9c0.1,2.5-0.3,4.9-1.1,7.3c-1.6,4.1-5.2,7.2-9.5,8c-3,0.6-6,0.9-9,0.8h-9.9
	v-28.9h11.8c2.6,0,5.1,0.2,7.7,0.6c1.9,0.4,3.7,1.1,5.3,2.1c1.6,1,2.9,2.4,3.8,4.1C268.3,131.9,268.6,133.9,268.7,135.9L268.7,135.9
	z"/>
</svg>
