<?xml version="1.0" encoding="utf-8"?>
<!-- Generator: Adobe Illustrator 22.1.0, SVG Export Plug-In . SVG Version: 6.00 Build 0)  -->
<svg version="1.1" id="logos_costa" xmlns="http://www.w3.org/2000/svg" xmlns:xlink="http://www.w3.org/1999/xlink" x="0px"
	 y="0px" viewBox="0 0 566.9 308.3" style="enable-background:new 0 0 566.9 308.3;" xml:space="preserve">
<path style="display:none;" d="M320.5,184.3c2.5-10.2-0.6-19.8-8.4-31.6c-7.5-11.3-10.7-17-10.3-25.9c0.5-11.8,8.1-21.3,19.6-28.4
	H285c-13.3,9.8-18.4,23.7-18.3,33.4c0.1,8.9,2.9,15.4,8.8,23.8c4.8,6.9,9.6,13,9.8,21.1c0.2,10.3-7.5,19-17.6,25.7l30.8,8.4
	C308,205.1,317.9,194.7,320.5,184.3L320.5,184.3z M341.4,124.5h19.5v68.7h28.5v-68.7h19.5V99.8h-67.5V124.5z M137.5,181.4L118,161.9
	c-8.4,8.4-22.1,8.3-30.5-0.1c-8.4-8.4-8.3-22.1,0.1-30.5c8.4-8.4,22.1-8.3,30.5,0.1l0.1,0.1l19.5-19.5
	c-19.1-19.3-50.2-19.5-69.5-0.4s-19.5,50.2-0.4,69.5s50.2,19.5,69.5,0.4L137.5,181.4z M458.4,155.7l7-29.3h0.3l6.9,29.3H458.4z
	 M483.1,99.8h-34.3l-29.6,93.4h30.4l3.9-15.2h24.6l3.9,15.2h31.4L483.1,99.8z M197.6,168.2c-11.9,0-21.5-9.7-21.5-21.6
	c0-11.9,9.7-21.5,21.6-21.5c11.9,0,21.5,9.7,21.5,21.5c0,11.9-9.6,21.6-21.5,21.6C197.7,168.2,197.7,168.2,197.6,168.2z M197.6,97.5
	c-27.1,0-49.1,22-49.1,49.2s22,49.1,49.2,49.1c27.1,0,49.1-22,49.1-49.2C246.8,119.5,224.8,97.5,197.6,97.5L197.6,97.5z"/>
<g>
	<path id="path22" style="fill:#FFFFFF;" d="M53.8,203.9H84v-9.2H53.8V203.9z"/>
	<path id="path24" style="fill:#FFFFFF;" d="M53.8,192H84v-9.2H53.8V192z"/>
	<path id="path26" style="fill:#FFFFFF;" d="M53.8,180.1H84V171H53.8V180.1z"/>
	<path id="path28" style="fill:#FFFFFF;" d="M53.8,168.2H84v-9.1H53.8V168.2z"/>
	<path id="path30" style="fill:#FFFFFF;" d="M53.8,156.3H84v-9.1H53.8V156.3z"/>
	<path id="path32" style="fill:#FFFFFF;" d="M87.7,203.9h30.2v-9.2H87.7V203.9z"/>
	<path id="path34" style="fill:#FFFFFF;" d="M87.7,192h30.2v-9.2H87.7V192z"/>
	<path id="path36" style="fill:#FFFFFF;" d="M87.7,180.1h30.2V171H87.7V180.1z"/>
	<path id="path38" style="fill:#FFFFFF;" d="M121.5,203.9h30.2v-9.2h-30.2V203.9z"/>
	<path id="path40" style="fill:#FFFFFF;" d="M121.5,192h30.2v-9.2h-30.2V192z"/>
	<path id="path42" style="fill:#FFFFFF;" d="M121.5,180.1h30.2V171h-30.2V180.1z"/>
	<path id="path44" style="fill:#FFFFFF;" d="M121.5,168.2h30.2v-9.1h-30.2V168.2z"/>
	<path id="path46" style="fill:#FFFFFF;" d="M121.5,156.3h30.2v-9.1h-30.2V156.3z"/>
	<path id="path48" style="fill:#FFFFFF;" d="M121.5,144.5h30.2v-9.1h-30.2V144.5z"/>
	<path id="path50" style="fill:#FFFFFF;" d="M121.5,132.6h30.2v-9.1h-30.2V132.6z"/>
	<path id="path52" style="fill:#FFFFFF;" d="M155.3,203.9h30.2v-9.2h-30.2V203.9z"/>
	<path id="path54" style="fill:#FFFFFF;" d="M155.3,192h30.2v-9.2h-30.2V192z"/>
	<path id="path56" style="fill:#FFFFFF;" d="M155.3,180.1h30.2V171h-30.2V180.1z"/>
	<path id="path58" style="fill:#FFFFFF;" d="M155.3,168.2h30.2v-9.1h-30.2V168.2z"/>
	<path id="path60" style="fill:#FFFFFF;" d="M155.3,156.3h30.2v-9.1h-30.2V156.3z"/>
	<path id="path62" style="fill:#FFFFFF;" d="M189.2,203.9h30.2v-9.2h-30.2V203.9z"/>
	<path id="path64" style="fill:#FFFFFF;" d="M189.2,192h30.2v-9.2h-30.2V192z"/>
	<path id="path66" style="fill:#FFFFFF;" d="M189.2,180.1h30.2V171h-30.2V180.1z"/>
	<path id="path68" style="fill:#FFFFFF;" d="M189.2,168.2h30.2v-9.1h-30.2V168.2z"/>
	<path id="path70" style="fill:#FFFFFF;" d="M189.2,156.3h30.2v-9.1h-30.2V156.3z"/>
	<path id="path72" style="fill:#FFFFFF;" d="M189.2,144.5h30.2v-9.1h-30.2V144.5z"/>
	<path id="path74" style="fill:#FFFFFF;" d="M189.2,132.6h30.2v-9.1h-30.2V132.6z"/>
	<path id="path76" style="fill:#FFFFFF;" d="M189.2,120.7h30.2v-9.1h-30.2V120.7z"/>
	<path id="path78" style="fill:#FFFFFF;" d="M245,192.1h7c10.4,0,12.1-5.5,12.1-22.9v-34.9c0-15-1.3-20.1-13.2-20.1H245L245,192.1z
		 M231.2,102.4h22.6c22.8,0,24.9,8,24.9,37.5V170c0,26-5.2,33.8-27.4,33.8h-20.1V102.4"/>
	<path id="path80" style="fill:#FFFFFF;" d="M284.3,102.4h38.4v12.1H298v31.8h22.9v11.9H298v33.7h24.7v12.1h-38.4L284.3,102.4"/>
	<path id="path82" style="fill:#FFFFFF;" d="M328.2,102.4h38.4v12.1h-24.7v31.8h22.9v11.9h-22.9v33.7h24.7v12.1h-38.4L328.2,102.4"
		/>
	<path id="path84" style="fill:#FFFFFF;" d="M422.4,102.4h38.4v12.1h-24.7v31.8H459v11.9h-22.9v33.7h24.7v12.1h-38.4L422.4,102.4"/>
	<path id="path86" style="fill:#FFFFFF;" d="M372.1,192l31.6-77.7h-31.6v-11.9h44.8v11.9L385.8,192h31.1v11.9h-44.8V192"/>
	<path id="path88" style="fill:#FFFFFF;" d="M480,147.2h4.3c11.1,0,12.8-1.4,12.8-16.6s-1.3-16.4-10.1-16.4h-7V147.2z M466.3,102.4
		h21.9c20.5,0,22,5.2,22,27.4c0,13.6-1.3,20.3-12.8,23.8l0,0c9.6,1,12.8,6,12.8,15.5v22.1c-0.1,4.2,0.2,8.5,0.9,12.7h-13.7
		c-1.4-2.5-0.9-5-0.9-9.1v-22.9c0-9.6-1.8-11.9-11.1-11.9H480v43.9h-13.7V102.4"/>
</g>
<g style="display:none;">
	<path style="display:inline;" d="M299.1,169.7c0,12.3-15.3,11.6-15.3,11.6h-15.3v-22.3h15.4C299.6,159,299.1,169.7,299.1,169.7
		 M268.4,125h11.7c12.1,0.6,11.7,9.7,11.7,9.7c0,11.2-13.4,11.4-13.4,11.4h-10L268.4,125z M296.3,150.5c0,0,10.5-4.5,10.4-16.3
		c0,0,1.6-19.4-24.2-21.8h-28.6v81.5h32.8c0,0,27.4,0.1,27.4-23C314.1,170.9,314.7,155.2,296.3,150.5 M222.3,96.4h120.3v113.4H222.3
		L222.3,96.4z"/>
	<path style="display:inline;" d="M160.4,169.7c0,12.3-15.3,11.6-15.3,11.6h-15.3v-22.3H145C160.8,159,160.3,169.7,160.4,169.7
		 M129.7,125h11.8c12.1,0.6,11.7,9.7,11.7,9.7c0,11.2-13.4,11.4-13.4,11.4h-10L129.7,125z M157.5,150.6c0,0,10.5-4.5,10.4-16.3
		c0,0,1.6-19.4-24.2-21.8h-28.6v81.5h32.8c0,0,27.4,0.1,27.4-23C175.3,170.9,176,155.2,157.5,150.6 M83.5,96.4h120.3v113.4H83.6
		L83.5,96.4z"/>
	<path style="display:inline;" d="M456.8,118.3v15.1c0,0-14.6-9-30.9-9.2c0,0-30.3-0.6-31.7,29c0,0-1.1,27.3,31.3,28.8
		c0,0,13.6,1.6,32-10.1v15.6c0,0-24.7,14.6-53.4,3.4c0,0-24.1-8.8-25-37.7c0,0-1-29.7,31.1-39.5c0,0,8.6-3.3,24-1.8
		C434.2,111.7,443.4,112.7,456.8,118.3 M361,209.8h120.4V96.4H361.1L361,209.8z"/>
</g>
<g id="g3030" style="display:none;">
	<path id="path3018" style="display:inline;" d="M140.9,100.9c0-10.2,7.2-18.6,18.9-18.6c12.2,0,18.9,8.8,18.9,19.1
		c0,11.4-8.3,18.2-18.7,18.2C148.5,119.6,140.9,111.9,140.9,100.9z"/>
	<path id="path3020" style="display:inline;" d="M141,135.1c-0.2-1.5,0.9-2.8,2.4-3c0.2,0,0.3,0,0.5,0h31.8c1.6,0,2.8,1.3,2.9,2.8
		c0,0,0,0.1,0,0.1v48.8c0,8.3,4.7,18,19.4,18c14.2,0,21.6-8.9,21.6-27v-3.8l15.1,28.8l1.9,9.7c0,0-14.9,14.4-41.8,14.4
		c-13.3,0-53.8-2.1-53.8-46.5V135.1z"/>
	<path id="path3024" style="display:inline;" d="M236.6,209.7l15.1-39l4.9-4.9v6.9c0,16.4,8,29.1,28.6,29.1c18.8,0,32-10.6,32-27.2
		c-0.1-5.3-1.5-10.5-4.1-15.1l21.4,10.6l1.9,25.9c0,0-14.2,27.8-54.3,27.8C250.8,223.9,236.6,209.7,236.6,209.7z"/>
	<path id="path3022" style="display:inline;" d="M236.6,209.7c-10.9-9.4-17.1-23.1-17.1-37.4v-69.8c0-5.6,3.6-10.5,18.7-10.5
		c16.5,0,18.3,6.4,18.3,11.3v29h29.3c2.1,0,2.9,1.2,2.9,3.2v17.3c0,1.6-0.7,2.9-2.6,2.9h-19.4c-3.5-0.1-7-0.8-10.2-1.9v11.7
		C256.5,179.9,252.8,194.8,236.6,209.7z"/>
	<path id="path3028" style="display:inline;" d="M336.3,196l4.6-51l2.1-8.9c0,0,9.3,13.5,32.9,57c15-27.3,24.6-59.9,24.6-59.9
		c0.7-2.2,2.5-2.8,5-2.1l16.2,5c2,0.7,3,1.4,1.9,5.1c-8.9,25-20.5,49-34.6,71.5c-4,6-8.2,11.1-21.9,11.1c-11.1,0-14.9-3.8-18.8-9.5
		L336.3,196z"/>
	<path id="path3026" style="display:inline;" d="M336.3,196L311,156.2c-1.5-2.9-2.7-4.6-2.7-7.9c0-5,2.6-8.5,11.3-14
		c4.4-2.4,9.2-3.7,14.2-3.9c7.4,0,13,7.7,13,23.8C346.9,180.3,336.3,196,336.3,196L336.3,196z"/>
</g>
</svg>
