<?xml version="1.0" encoding="utf-8"?>
<!-- Generator: Adobe Illustrator 22.1.0, SVG Export Plug-In . SVG Version: 6.00 Build 0)  -->
<svg version="1.1" id="logos_jbcapitalmarkets" xmlns="http://www.w3.org/2000/svg" xmlns:xlink="http://www.w3.org/1999/xlink"
	 x="0px" y="0px" viewBox="0 0 566.9 308.3" style="enable-background:new 0 0 566.9 308.3;" xml:space="preserve">
<path style="fill:#FFFFFF;" d="M69,157.5c0,7.2-1,14.8-15,14.8c-2.2,0-4.5-0.2-6.7-0.8v-6.2c2.1,1.1,4.5,1.7,7,1.8
	c6.3,0,6.8-4.4,6.8-9.7v-35.3H69L69,157.5L69,157.5z"/>
<path style="fill:#FFFFFF;" d="M79.4,122.2h11.2c8.2,0,17.5,1.3,17.5,11.8c0,7-4.8,10.2-8.7,11.2v0.1c5.1,1,11,4,11,12.7
	c0,13.6-13.1,13.6-19.8,13.6H79.4V122.2z M87.3,143.2h3.3c5.7,0,9.6-1.9,9.6-8.6c0-6.5-3.8-7.7-9.6-7.7h-3.3V143.2z M87.3,166.9h3.3
	c5.4,0,12-0.3,12-9.5c0-7.8-5.6-9.5-12-9.5h-3.3V166.9L87.3,166.9z"/>
<path style="fill:#FFFFFF;" d="M147.8,169.1c-2.1,1.4-5.8,3.3-11.7,3.3c-13.3,0-18.8-11.5-18.8-26.7c0-8.3,2.4-24.3,17.5-24.3
	c9.4,0,15,6.6,15,14.2h-5.4c0-4.9-2.3-10.9-9.7-10.9c-11,0-12.5,13.5-12.5,20.4c0,12.8,4.1,24,14.5,24c5.4,0,8.6-2.6,11.1-4.7
	L147.8,169.1z"/>
<path style="fill:#FFFFFF;" d="M172.7,166.3h-0.1c-1.9,3.7-5.7,6-9.8,6.1c-4.8,0.2-8.9-3.5-9.1-8.4c0-0.1,0-0.2,0-0.4
	c0-6.5,5.8-11.1,19-11.1v-2.3c0-5.3,0-10.8-7-10.8c-5.5,0-6.2,3.5-6.4,6.3h-4.9c0.5-3.7,2.4-9.1,11.7-9.1c9.2,0,10.4,6,10.4,11.7
	v23.2h-3.9L172.7,166.3z M172.7,155.4c-3.3,0-14.7,0.1-14.7,7.8c0,3.4,2.6,5.6,5.9,5.6c6.5,0,8.7-6.7,8.7-11.4L172.7,155.4
	L172.7,155.4z"/>
<path style="fill:#FFFFFF;" d="M188.6,137.5h3.9v6.9h0.1c0.8-2.2,3.5-7.7,9.3-7.7c8.1,0,11.9,7.8,11.9,18.2c0,8.9-3.3,17.5-12,17.5
	c-6.4,0-8.6-5.4-9.2-7.6h-0.1v22.1h-3.9L188.6,137.5L188.6,137.5z M201.6,169.6c5.6,0,7.8-7.6,7.8-14.5c0-7.9-2.2-15.5-7.9-15.5
	c-5.9,0-9.1,9.4-9.1,14.6C192.5,159.4,195.4,169.6,201.6,169.6L201.6,169.6z"/>
<path style="fill:#FFFFFF;" d="M222.6,122.2h5v5.8h-5V122.2z M223.1,137.5h3.9v34.1h-3.9V137.5z"/>
<path style="fill:#FFFFFF;" d="M254.4,172.2c-1.2,0.1-2.3,0.2-3.5,0.2c-4.5,0-9.7-0.8-9.7-7.9v-24h-5.6v-2.9h5.6v-7.9l4-2.5v10.4
	h8.9v2.9h-8.9v21.2c0,3.3,0,7.9,6.2,7.9c1,0,2.1-0.1,3.1-0.5L254.4,172.2z"/>
<path style="fill:#FFFFFF;" d="M278,166.3h-0.1c-1.9,3.7-5.7,6-9.8,6.1c-4.8,0.2-8.9-3.6-9.1-8.4c0-0.1,0-0.2,0-0.3
	c0-6.5,5.8-11.1,19-11.1v-2.3c0-5.3,0-10.8-7-10.8c-5.5,0-6.2,3.5-6.4,6.3h-4.9c0.5-3.7,2.4-9.1,11.7-9.1c9.2,0,10.4,6,10.4,11.7
	v23.2h-3.9L278,166.3L278,166.3L278,166.3z M278,155.4c-3.3,0-14.7,0.1-14.7,7.8c0,3.4,2.6,5.6,5.9,5.6c6.5,0,8.7-6.7,8.7-11.4
	L278,155.4L278,155.4z"/>
<rect x="293.9" y="122.2" style="fill:#FFFFFF;" width="3.9" height="49.4"/>
<polygon style="fill:#FFFFFF;" points="345,122.2 351.9,122.2 351.9,171.6 347.4,171.6 347.4,126 347.3,126 332.8,171.6 
	328.5,171.6 313.9,126 313.8,126 313.8,171.6 310.1,171.6 310.1,122.2 316.7,122.2 330.7,166.2 330.8,166.2 "/>
<path style="fill:#FFFFFF;" d="M380.2,166.3H380c-1.9,3.7-5.7,6-9.8,6.1c-4.8,0.2-8.9-3.6-9.1-8.4c0-0.1,0-0.2,0-0.3
	c0-6.5,5.8-11.1,19-11.1v-2.3c0-5.3,0-10.8-7-10.8c-5.5,0-6.2,3.5-6.4,6.3h-4.9c0.5-3.7,2.4-9.1,11.7-9.1c9.2,0,10.4,6,10.4,11.7
	v23.2h-3.9L380.2,166.3L380.2,166.3z M380.2,155.4c-3.3,0-14.7,0.1-14.7,7.8c0,3.4,2.6,5.6,5.9,5.6c6.5,0,8.7-6.7,8.7-11.4
	L380.2,155.4L380.2,155.4z"/>
<path style="fill:#FFFFFF;" d="M396,137.5h3.9v7.6h0.1c2.3-4.3,5.4-8,10.6-8.3v5.1h-1.2c-7.4,0-9.5,7.2-9.5,12.5v17.2H396L396,137.5
	z"/>
<polygon style="fill:#FFFFFF;" points="418.5,122.2 422.4,122.2 422.4,153 422.6,153 435.1,137.5 439.5,137.5 426.8,152.9 
	441,171.6 436.2,171.6 422.6,153.5 422.4,153.5 422.4,171.6 418.5,171.6 "/>
<path style="fill:#FFFFFF;" d="M468.9,171.6c-2.4,0.6-4.8,0.8-7.2,0.8c-11.1,0-16.7-6.5-16.7-18.7c0-9.9,3.6-17,13.1-17
	c5.7,0,11.3,3.3,11.3,13.6h-20.1c0,16.5,8.8,19.1,13.3,19.1c2.1,0,4.2-0.3,6.2-0.9V171.6z M465.1,147.6c0-2.6-0.9-8-7.5-8
	s-7.7,5.5-7.9,8H465.1z"/>
<path style="fill:#FFFFFF;" d="M492.8,172.2c-1.2,0.1-2.3,0.2-3.5,0.2c-4.5,0-9.7-0.8-9.7-7.9v-24H474v-2.9h5.6v-7.9l3.9-2.4v10.4h9
	v2.9h-8.9v21.2c0,3.3,0,7.9,6.2,7.9c1.1,0,2.1-0.2,3.1-0.5L492.8,172.2L492.8,172.2L492.8,172.2z"/>
<path style="fill:#FFFFFF;" d="M517.4,142.2c-1.4-0.6-4.8-2.5-8.8-2.5c-3.6,0-6.7,1.4-6.7,4.8c0,3.9,3.2,4.8,7.5,7
	c4.7,2.3,10.2,4,10.2,10.8c0,4.7-2.5,10.2-12.6,10.2c-4.8,0-7.8-0.8-9.5-1.5v-4.4c3,1.6,6.4,2.5,9.8,2.6c4.8,0,7.9-2,7.9-6.2
	c0-5-5-5.9-12-9.5c-2.6-1.4-5.3-4-5.3-7.9c0-6.4,5.2-8.8,11.4-8.8c2.7,0.1,5.4,0.5,8,1.2v4.2l0,0L517.4,142.2z"/>
</svg>
