<?xml version="1.0" encoding="utf-8"?>
<!-- Generator: Adobe Illustrator 22.1.0, SVG Export Plug-In . SVG Version: 6.00 Build 0)  -->
<svg version="1.1" id="logos_costa" xmlns="http://www.w3.org/2000/svg" xmlns:xlink="http://www.w3.org/1999/xlink" x="0px"
	 y="0px" viewBox="0 0 566.9 308.3" style="enable-background:new 0 0 566.9 308.3;" xml:space="preserve">
<path style="display:none;" d="M320.5,184.3c2.5-10.2-0.6-19.8-8.4-31.6c-7.5-11.3-10.7-17-10.3-25.9c0.5-11.8,8.1-21.3,19.6-28.4
	H285c-13.3,9.8-18.4,23.7-18.3,33.4c0.1,8.9,2.9,15.4,8.8,23.8c4.8,6.9,9.6,13,9.8,21.1c0.2,10.3-7.5,19-17.6,25.7l30.8,8.4
	C308,205.1,317.9,194.7,320.5,184.3L320.5,184.3z M341.4,124.5h19.5v68.7h28.5v-68.7h19.5V99.8h-67.5V124.5z M137.5,181.4L118,161.9
	c-8.4,8.4-22.1,8.3-30.5-0.1c-8.4-8.4-8.3-22.1,0.1-30.5c8.4-8.4,22.1-8.3,30.5,0.1l0.1,0.1l19.5-19.5
	c-19.1-19.3-50.2-19.5-69.5-0.4s-19.5,50.2-0.4,69.5s50.2,19.5,69.5,0.4L137.5,181.4z M458.4,155.7l7-29.3h0.3l6.9,29.3H458.4z
	 M483.1,99.8h-34.3l-29.6,93.4h30.4l3.9-15.2h24.6l3.9,15.2h31.4L483.1,99.8z M197.6,168.2c-11.9,0-21.5-9.7-21.5-21.6
	c0-11.9,9.7-21.5,21.6-21.5c11.9,0,21.5,9.7,21.5,21.5c0,11.9-9.6,21.6-21.5,21.6C197.7,168.2,197.7,168.2,197.6,168.2z M197.6,97.5
	c-27.1,0-49.1,22-49.1,49.2s22,49.1,49.2,49.1c27.1,0,49.1-22,49.1-49.2C246.8,119.5,224.8,97.5,197.6,97.5L197.6,97.5z"/>
<g style="display:none;">
	<path id="path22" style="display:inline;fill:#FFFFFF;" d="M53.8,203.9H84v-9.2H53.8V203.9z"/>
	<path id="path24" style="display:inline;fill:#FFFFFF;" d="M53.8,192H84v-9.2H53.8V192z"/>
	<path id="path26" style="display:inline;fill:#FFFFFF;" d="M53.8,180.1H84V171H53.8V180.1z"/>
	<path id="path28" style="display:inline;fill:#FFFFFF;" d="M53.8,168.2H84v-9.1H53.8V168.2z"/>
	<path id="path30" style="display:inline;fill:#FFFFFF;" d="M53.8,156.3H84v-9.1H53.8V156.3z"/>
	<path id="path32" style="display:inline;fill:#FFFFFF;" d="M87.7,203.9h30.2v-9.2H87.7V203.9z"/>
	<path id="path34" style="display:inline;fill:#FFFFFF;" d="M87.7,192h30.2v-9.2H87.7V192z"/>
	<path id="path36" style="display:inline;fill:#FFFFFF;" d="M87.7,180.1h30.2V171H87.7V180.1z"/>
	<path id="path38" style="display:inline;fill:#FFFFFF;" d="M121.5,203.9h30.2v-9.2h-30.2V203.9z"/>
	<path id="path40" style="display:inline;fill:#FFFFFF;" d="M121.5,192h30.2v-9.2h-30.2V192z"/>
	<path id="path42" style="display:inline;fill:#FFFFFF;" d="M121.5,180.1h30.2V171h-30.2V180.1z"/>
	<path id="path44" style="display:inline;fill:#FFFFFF;" d="M121.5,168.2h30.2v-9.1h-30.2V168.2z"/>
	<path id="path46" style="display:inline;fill:#FFFFFF;" d="M121.5,156.3h30.2v-9.1h-30.2V156.3z"/>
	<path id="path48" style="display:inline;fill:#FFFFFF;" d="M121.5,144.5h30.2v-9.1h-30.2V144.5z"/>
	<path id="path50" style="display:inline;fill:#FFFFFF;" d="M121.5,132.6h30.2v-9.1h-30.2V132.6z"/>
	<path id="path52" style="display:inline;fill:#FFFFFF;" d="M155.3,203.9h30.2v-9.2h-30.2V203.9z"/>
	<path id="path54" style="display:inline;fill:#FFFFFF;" d="M155.3,192h30.2v-9.2h-30.2V192z"/>
	<path id="path56" style="display:inline;fill:#FFFFFF;" d="M155.3,180.1h30.2V171h-30.2V180.1z"/>
	<path id="path58" style="display:inline;fill:#FFFFFF;" d="M155.3,168.2h30.2v-9.1h-30.2V168.2z"/>
	<path id="path60" style="display:inline;fill:#FFFFFF;" d="M155.3,156.3h30.2v-9.1h-30.2V156.3z"/>
	<path id="path62" style="display:inline;fill:#FFFFFF;" d="M189.2,203.9h30.2v-9.2h-30.2V203.9z"/>
	<path id="path64" style="display:inline;fill:#FFFFFF;" d="M189.2,192h30.2v-9.2h-30.2V192z"/>
	<path id="path66" style="display:inline;fill:#FFFFFF;" d="M189.2,180.1h30.2V171h-30.2V180.1z"/>
	<path id="path68" style="display:inline;fill:#FFFFFF;" d="M189.2,168.2h30.2v-9.1h-30.2V168.2z"/>
	<path id="path70" style="display:inline;fill:#FFFFFF;" d="M189.2,156.3h30.2v-9.1h-30.2V156.3z"/>
	<path id="path72" style="display:inline;fill:#FFFFFF;" d="M189.2,144.5h30.2v-9.1h-30.2V144.5z"/>
	<path id="path74" style="display:inline;fill:#FFFFFF;" d="M189.2,132.6h30.2v-9.1h-30.2V132.6z"/>
	<path id="path76" style="display:inline;fill:#FFFFFF;" d="M189.2,120.7h30.2v-9.1h-30.2V120.7z"/>
	<path id="path78" style="display:inline;fill:#FFFFFF;" d="M245,192.1h7c10.4,0,12.1-5.5,12.1-22.9v-34.9c0-15-1.3-20.1-13.2-20.1
		H245L245,192.1z M231.2,102.4h22.6c22.8,0,24.9,8,24.9,37.5V170c0,26-5.2,33.8-27.4,33.8h-20.1V102.4"/>
	<path id="path80" style="display:inline;fill:#FFFFFF;" d="M284.3,102.4h38.4v12.1H298v31.8h22.9v11.9H298v33.7h24.7v12.1h-38.4
		L284.3,102.4"/>
	<path id="path82" style="display:inline;fill:#FFFFFF;" d="M328.2,102.4h38.4v12.1h-24.7v31.8h22.9v11.9h-22.9v33.7h24.7v12.1
		h-38.4L328.2,102.4"/>
	<path id="path84" style="display:inline;fill:#FFFFFF;" d="M422.4,102.4h38.4v12.1h-24.7v31.8H459v11.9h-22.9v33.7h24.7v12.1h-38.4
		L422.4,102.4"/>
	<path id="path86" style="display:inline;fill:#FFFFFF;" d="M372.1,192l31.6-77.7h-31.6v-11.9h44.8v11.9L385.8,192h31.1v11.9h-44.8
		V192"/>
	<path id="path88" style="display:inline;fill:#FFFFFF;" d="M480,147.2h4.3c11.1,0,12.8-1.4,12.8-16.6s-1.3-16.4-10.1-16.4h-7V147.2
		z M466.3,102.4h21.9c20.5,0,22,5.2,22,27.4c0,13.6-1.3,20.3-12.8,23.8l0,0c9.6,1,12.8,6,12.8,15.5v22.1c-0.1,4.2,0.2,8.5,0.9,12.7
		h-13.7c-1.4-2.5-0.9-5-0.9-9.1v-22.9c0-9.6-1.8-11.9-11.1-11.9H480v43.9h-13.7V102.4"/>
</g>
<g style="display:none;">
	<path style="display:inline;fill:#FFFFFF;" d="M299.1,169.7c0,12.3-15.3,11.6-15.3,11.6h-15.3v-22.3h15.4
		C299.6,159,299.1,169.7,299.1,169.7 M268.4,125h11.7c12.1,0.6,11.7,9.7,11.7,9.7c0,11.2-13.4,11.4-13.4,11.4h-10L268.4,125z
		 M296.3,150.5c0,0,10.5-4.5,10.4-16.3c0,0,1.6-19.4-24.2-21.8h-28.6v81.5h32.8c0,0,27.4,0.1,27.4-23
		C314.1,170.9,314.7,155.2,296.3,150.5 M222.3,96.4h120.3v113.4H222.3L222.3,96.4z"/>
	<path style="display:inline;fill:#FFFFFF;" d="M160.4,169.7c0,12.3-15.3,11.6-15.3,11.6h-15.3v-22.3H145
		C160.8,159,160.3,169.7,160.4,169.7 M129.7,125h11.8c12.1,0.6,11.7,9.7,11.7,9.7c0,11.2-13.4,11.4-13.4,11.4h-10L129.7,125z
		 M157.5,150.6c0,0,10.5-4.5,10.4-16.3c0,0,1.6-19.4-24.2-21.8h-28.6v81.5h32.8c0,0,27.4,0.1,27.4-23
		C175.3,170.9,176,155.2,157.5,150.6 M83.5,96.4h120.3v113.4H83.6L83.5,96.4z"/>
	<path style="display:inline;fill:#FFFFFF;" d="M456.8,118.3v15.1c0,0-14.6-9-30.9-9.2c0,0-30.3-0.6-31.7,29c0,0-1.1,27.3,31.3,28.8
		c0,0,13.6,1.6,32-10.1v15.6c0,0-24.7,14.6-53.4,3.4c0,0-24.1-8.8-25-37.7c0,0-1-29.7,31.1-39.5c0,0,8.6-3.3,24-1.8
		C434.2,111.7,443.4,112.7,456.8,118.3 M361,209.8h120.4V96.4H361.1L361,209.8z"/>
</g>
<g>
	<path style="fill:#FFFFFF;" d="M325.6,127.6c-15.5,7-28.9,7.5-28.9,7.5v-31.3h12.3l-7.3-10.6l-13.5,0.1l-2.9,4.2l-2.9-4.2
		l-13.5-0.1l-7.3,10.6H274V135c0,0-13.3-0.5-28.9-7.5l-9.1,12.5c0,0,2.3,1.1,12.1,4.5l2.9-4.4c0,0,15,5.4,34.3,5.3
		c19.3,0.1,34.3-5.3,34.3-5.3l2.9,4.4c9.8-3.4,12.1-4.5,12.1-4.5L325.6,127.6z M284.2,142.8c-16.9,0.5-34-5.4-34-5.4l-2.9,4.2
		c-5.7-1.7-7.7-2.8-7.7-2.8l6.1-8.4c15,6.5,30.3,7.1,30.3,7.1v-36h-10.4l4.3-6.1h11.2l3.1,4.5V142.8z M320.5,137.4
		c0,0-17.2,6-34,5.4V99.9l3.1-4.5h11.2l4.3,6.1h-10.4v36c0,0,15.2-0.6,30.3-7.1l6.1,8.4c0,0-2,1.1-7.7,2.8L320.5,137.4z"/>
	<g>
		<path style="fill:#FFFFFF;" d="M514.5,176.4c0,0-4.7,2.6-12.3,11.6h-4.6c0,0-1.2,0.3-1.2-1.2v-11.6c0,0-0.2-1.1,1-1.1h3.4
			c0,0,0.9-0.1,1.7,1.4l0.5,1c0,0,0.3,1.1,1.7,0.8c0,0,1.3,0.2,0.9-1.3c-0.4-1.5-0.1-0.2-0.1-0.2l-2-6c0,0-0.1-0.8-1.1-0.8l-0.9-0.1
			c0,0-1-0.1-0.8,1.1c0,0,0.3,1.3-1.1,1.3h-2c0,0-1.1,0.3-1.1-1.7v-3.4c0,0-0.2-1,1.3-1h7c0,0,1.6-0.5,2.6,1.7l0.5,1.1
			c0,0,0,1.1,1.6,0.8c0,0,1.7,0.2,1.2-1.4l-1.3-3.9c0,0-0.1-0.9-1.2-0.9h-20c0,0-1.1-0.3-1.1,1v0.7c0,0-0.2,0.6,1.1,0.9
			c0,0,1.5,0.1,1.5,2l-0.1,19c0,0,0,1.7-1.1,2.1c0,0-1.3-0.4-1.3,1.1c0,0-0.5,1.2,1.3,1.3h9.6c0,0,1.7-0.1,0.8,1.1
			c0,0-3.4,5.6-10,9.5c0,0-4.2,2.7-11.7,2.8h-388c0,0-8.2,0.8-12.5-3.5l-6.5-7.2c0,0-0.5-0.9,0.4-1.1c0,0,8-1.5,10.8-6.9
			c2.8-5.4,3.2-9.3,3.2-13.2v-18c0,0-0.3-1.3,1.3-1.3h1.6c0,0,0.8,0.3,0.8-1.3v-0.7c0,0,0.5-1.1-1-1.1H73.4c0,0-1-0.3-1.1,0.9v0.9
			c0,0-0.4,1.2,1.2,1.2h1.1c0,0,1.8-0.3,1.7,2v21.8c0,0,0.9,11.4-9.3,12.8c0,0-6.7-9.8-10.8-12.1c0,0-5.9-4.4-10.4-0.3
			c0,0-4.5,5.1,2.4,11c0,0,6.9,5.5,18,5.2c0,0,5.9,8.9,7.2,10.4c0,0,4.4,5.2,8,6.7c3.6,1.5,4.2,2.4,16.8,2.4h371.3
			c0,0,9.6,0.6,15-2.6c0,0,4.4-2.1,9.3-7.6l9.8-11.7c0,0,10,0.3,15.4-3.2c0,0,5.5-2.8,5.9-7.3C525.4,175.7,521,173.3,514.5,176.4z
			 M55.8,188.6c-4.3-2-3.1-4.8-3.1-4.8c0.9-2.1,3.8-0.7,3.8-0.7c3.6,1.5,7.3,7.2,7.3,7.2C58.9,190.9,55.8,188.6,55.8,188.6z
			 M514.5,186.4c-2.9,2-9,1.7-9,1.7c1-1.7,4.8-5.4,4.8-5.4c3.1-2.7,5.2-1.4,5.2-1.4C518.4,183.9,514.5,186.4,514.5,186.4z"/>
		<path style="fill:#FFFFFF;" d="M116.3,189.2c0,0,0.1-0.7-1.1-1c0,0-1.3-0.1-2-2l-7.7-22.7c0,0,0.1-1.1-1.2-1.1h-6.1
			c0,0-0.9,0-1.4,1.3l-8.6,22.9c0,0,0.1,1.5-2.8,1.5c0,0-1.1,0.1-0.9,1.2v0.8c0,0-0.1,0.9,1.2,0.9h7.4c0,0,1,0.1,1-0.7v-0.8
			c0,0,0.3-1-0.9-1.2c0,0-2-0.3-1.3-2.1l1.1-2.5h12.1l1.1,2.9c0,0,0.5,1.4-0.5,1.6c0,0-1.4,0.1-1.4,0.8v1c0,0-0.4,1,1.4,1h9.6
			c0,0,1.1,0.3,1.1-0.9L116.3,189.2z M103.2,180.6h-7.7c-2,0-0.9-1.8-0.9-1.8l4-10.5c0.8-1.6,1.6,0,1.6,0l3.4,10.3
			C104.4,181.1,103.2,180.6,103.2,180.6z"/>
		<path style="fill:#FFFFFF;" d="M295.2,187.9h-4.6c0,0-1.2,0.3-1.2-1.2v-11.6c0,0-0.2-1.1,1-1.1h3.4c0,0,0.9-0.1,1.7,1.4l0.5,1
			c0,0,0.3,1.1,1.7,0.8c0,0,1.3,0.2,0.9-1.3c-0.4-1.5-0.1-0.2-0.1-0.2l-2-6c0,0-0.1-0.8-1.1-0.8l-0.9-0.1c0,0-1-0.1-0.8,1.1
			c0,0,0.3,1.3-1.1,1.3h-2c0,0-1.1,0.3-1.1-1.7v-3.4c0,0-0.2-1,1.3-1h7c0,0,1.6-0.5,2.6,1.7l0.5,1.1c0,0,0,1.1,1.6,0.8
			c0,0,1.7,0.2,1.2-1.4l-1.3-3.9c0,0-0.1-0.9-1.2-0.9h-20c0,0-1.1-0.3-1.1,1v0.7c0,0-0.2,0.6,1.1,0.9c0,0,1.5,0.1,1.5,2l-0.1,19
			c0,0,0,1.7-1.1,2.1c0,0-1.3-0.4-1.3,1.1c0,0-0.5,1.2,1.3,1.3h9.6h10.6c0,0,0.7,0.3,1.2-0.6l1.7-4c0,0,0.6-1.3-0.7-1.3h-1.3
			c0,0-0.7-0.2-1,0.6l-0.7,1.3c0,0-0.1,1.1-2.1,1.2H295.2z"/>
		<path style="fill:#FFFFFF;" d="M134.5,187.9h-4.6c0,0-1.2,0.3-1.2-1.2v-11.6c0,0-0.2-1.1,1-1.1h3.4c0,0,0.9-0.1,1.7,1.4l0.5,1
			c0,0,0.3,1.1,1.7,0.8c0,0,1.3,0.2,0.9-1.3c-0.4-1.5-0.1-0.2-0.1-0.2l-2-6c0,0-0.1-0.8-1.1-0.8l-0.9-0.1c0,0-1-0.1-0.8,1.1
			c0,0,0.3,1.3-1.1,1.3h-2c0,0-1.1,0.3-1.1-1.7v-3.4c0,0-0.2-1,1.3-1h7c0,0,1.6-0.5,2.6,1.7l0.5,1.1c0,0,0,1.1,1.6,0.8
			c0,0,1.7,0.2,1.2-1.4l-1.3-3.9c0,0-0.1-0.9-1.2-0.9h-20c0,0-1.1-0.3-1.1,1v0.7c0,0-0.2,0.6,1.1,0.9c0,0,1.5,0.1,1.5,2l-0.1,19
			c0,0,0,1.7-1.1,2.1c0,0-1.3-0.4-1.3,1.1c0,0-0.5,1.2,1.3,1.3h9.6h10.6c0,0,0.7,0.3,1.2-0.6l1.7-4c0,0,0.6-1.3-0.7-1.3h-1.3
			c0,0-0.7-0.2-1,0.6l-0.7,1.3c0,0-0.1,1.1-2.1,1.2H134.5z"/>
		<path style="fill:#FFFFFF;" d="M191.8,188.2h-4.6c0,0-1.2,0.3-1.2-1.2v-11.6c0,0-0.2-1.1,1-1.1h3.4c0,0,0.9-0.1,1.7,1.4l0.5,1
			c0,0,0.3,1.1,1.7,0.8c0,0,1.3,0.2,0.9-1.3c-0.4-1.5-0.1-0.2-0.1-0.2l-2-6c0,0-0.1-0.8-1.1-0.8l-0.9-0.1c0,0-1-0.1-0.8,1.1
			c0,0,0.3,1.3-1.1,1.3h-2c0,0-1.1,0.3-1.1-1.7v-3.4c0,0-0.2-1,1.3-1h7c0,0,1.6-0.5,2.6,1.7l0.5,1.1c0,0,0,1.1,1.6,0.8
			c0,0,1.7,0.2,1.2-1.4l-1.3-3.9c0,0-0.1-0.9-1.2-0.9h-20c0,0-1.1-0.3-1.1,1v0.7c0,0-0.2,0.6,1.1,0.9c0,0,1.5,0.1,1.5,2l-0.1,19
			c0,0,0,1.7-1.1,2.1c0,0-1.3-0.4-1.3,1.1c0,0-0.5,1.2,1.3,1.3h9.6h10.6c0,0,0.7,0.3,1.2-0.6l1.7-4c0,0,0.6-1.3-0.7-1.3h-1.3
			c0,0-0.7-0.2-1,0.6l-0.7,1.3c0,0-0.1,1.1-2.1,1.2H191.8z"/>
		<path style="fill:#FFFFFF;" d="M159.6,162c0,0-13-0.1-13.9,14.4c-1,14.6,13.3,14.8,13.3,14.8s4.8,0.6,11.1-3.6c0,0,0.9-0.7,1-2
			l0.3-2.7c0,0-0.6-2.2,1.8-2.2c0,0,0.9-0.1,0.9-1.1v-0.5c0,0,0.1-0.9-1.5-0.9h-10.2c0,0-1.1-0.2-1.1,0.7v0.7c0,0-0.1,0.9,1.1,0.9
			c0,0,2.5-0.2,2.5,2.3c0,0,0.5,5.9-5.7,5.9c-6.3,0-6.1-5.9-6.3-13.4c-0.2-7.5,2.2-11.1,7.3-11c5.1,0.1,6.9,4.2,7.4,5.1
			c0,0,0.3,0.9,1.5,0.8l1.3-0.5c0,0,0.8,0.2,0.5-1l-1.7-5.5c0,0,0-1-1-0.8c0,0-0.6-0.1-0.9,0.6c0,0,0.2,1.5-2.3,0.5
			C164.9,163.5,162.9,162,159.6,162z"/>
		<path style="fill:#FFFFFF;" d="M235.9,189.3c0,0,0.1-0.7-1.1-0.8l-0.6,0c0,0-1.6,0.2-3.1-2.2c0,0-3.8-7.1-6.1-8.7
			c0,0-0.7-0.6,0-0.8c0,0,3.2-0.6,5-2.4c0,0,2.2-0.9,2.1-5.2c0,0,0.5-6.4-8.8-6.5h-17.1l0,0l0,0c0,0-1.1-0.3-1.1,1v0.7
			c0,0-0.2,0.6,1.1,0.9c0,0,1.5,0.1,1.5,2l-0.1,19c0,0,0.2,2-1.4,2.1c0,0-1.4-0.2-1.3,1.2c0,0-0.5,1.4,1.4,1.5h9.4
			c0,0,1.4,0.3,1.4-0.7l0-1.1c0,0,0.1-0.9-1.3-0.9c-0.4-0.1-1.3-0.5-1.4-1.7v-7.9c0,0-0.2-1.1,1-1.1l0,0l1.9,0c0,0,2.4-0.2,3.6,2.2
			l4.2,7.8c0,0,1.3,3.2,4.8,3.2h5.4c0,0,0.8,0.2,0.8-0.9L235.9,189.3z M220.3,175.1l-4.9-0.1l0,0c0,0,0,0,0,0l-0.1,0l0,0
			c-0.3,0-0.9-0.2-0.9-1.7v-7.2c0,0-0.2-1,1.3-1l5.6,0.1c0,0,4.5,0,4.6,4.3C225.8,173.7,223.6,175.1,220.3,175.1z"/>
		<path style="fill:#FFFFFF;" d="M485.6,189.3c0,0,0.1-0.7-1.1-0.8l-0.6,0c0,0-1.6,0.2-3.1-2.2c0,0-3.8-7.1-6.1-8.7
			c0,0-0.7-0.6,0-0.8c0,0,3.2-0.6,5-2.4c0,0,2.2-0.9,2.1-5.2c0,0,0.5-6.4-8.8-6.5h-17.1l0,0l0,0c0,0-1.1-0.3-1.1,1v0.7
			c0,0-0.2,0.6,1.1,0.9c0,0,1.5,0.1,1.5,2l-0.1,19c0,0,0.2,2-1.4,2.1c0,0-1.4-0.2-1.3,1.2c0,0-0.5,1.4,1.4,1.5h9.4
			c0,0,1.4,0.3,1.4-0.7l0-1.1c0,0,0.1-0.9-1.3-0.9c-0.4-0.1-1.3-0.5-1.4-1.7v-7.9c0,0-0.2-1.1,1-1.1l0,0l1.9,0c0,0,2.4-0.2,3.6,2.2
			l4.2,7.8c0,0,1.3,3.2,4.8,3.2h5.4c0,0,0.8,0.2,0.8-0.9L485.6,189.3z M470,175.1l-4.9-0.1l0,0c0,0,0,0,0,0l-0.1,0l0,0
			c-0.3,0-0.9-0.2-0.9-1.7v-7.2c0,0-0.2-1,1.3-1l5.6,0.1c0,0,4.5,0,4.6,4.3C475.5,173.7,473.3,175.1,470,175.1z"/>
		<path style="fill:#FFFFFF;" d="M249.9,179c0.6,0,1.1-0.5,1.1-1.1v-2.4c0-0.6-0.5-1.1-1.1-1.1h-11c-0.6,0-1.1,0.5-1.1,1.1v2.4
			c0,0.6,0.5,1.1,1.1,1.1H249.9z"/>
		<path style="fill:#FFFFFF;" d="M256.1,162.4c0,0-0.8,0.1-0.8,0.8v0.9c0,0-0.1,1,1.2,0.8c0,0,2.2-0.2,2.2,2v19.6
			c0,0,0.2,1.5-1.5,1.5c0,0-1.1-0.1-1.2,0.8v1.1c0,0,0,1,0.9,1.1h18.2c0,0,0.6,0.3,1.3-1.1l1.8-4c0,0,0.5-1.1-0.6-1.1h-1.3
			c0,0-0.7,0-1,0.6l-0.7,1.3c0,0-0.7,1.5-2.4,1.3h-5.4c0,0-1.6,0.2-1.6-1.3v-19.8c0,0-0.2-1.8,1.4-1.9h0.8c0,0,0.7,0.1,0.7-1v-0.7
			c0,0,0.2-0.9-1-0.9H256.1z"/>
		<path style="fill:#FFFFFF;" d="M407.4,162.4c0,0-0.8,0.1-0.8,0.8v0.9c0,0-0.1,1,1.2,0.8c0,0,2.2-0.2,2.2,2v19.6
			c0,0,0.2,1.5-1.5,1.5c0,0-1.1-0.1-1.2,0.8v1.1c0,0,0,1,0.9,1.1h18.2c0,0,0.6,0.3,1.3-1.1l1.8-4c0,0,0.5-1.1-0.6-1.1h-1.3
			c0,0-0.7,0-1,0.6l-0.7,1.3c0,0-0.7,1.5-2.4,1.3h-5.4c0,0-1.6,0.2-1.6-1.3v-19.8c0,0-0.2-1.8,1.4-1.9h0.8c0,0,0.7,0.1,0.7-1v-0.7
			c0,0,0.2-0.9-1-0.9H407.4z"/>
		<path style="fill:#FFFFFF;" d="M325.3,149.4c0,0-18-0.9-18.2,21.2c0,0-0.8,19.3,17.8,20.2c0,0,4.3,0.3,8.1-2.2
			c0,0,1.2-0.5,1.5,0.5c0,0,0.2,1.3,1.6,1.2c0,0,1.4-0.1,1.5-1.3l2.5-7.6c0,0,0.5-1.3-0.6-1.3l-0.9-0.1c0,0-0.7,0-1.1,0.9
			c0,0-1.3,3.1-3,4.2c0,0-2.5,3-8.3,2.8c0,0-10.8,0.3-10.4-17.5c0,0-0.9-18.4,10.7-18.3c0,0,5.6-0.4,9.6,5.6c0,0,0.5,1.1,1.7,1.1
			h1.1c0,0,0.9,0.1,0.6-1.5l-1.8-7c0,0-0.2-0.9-0.9-0.9h-1.3c0,0-0.6,0.2-0.5,0.9c0,0,0.2,0.9-0.3,1.1c0,0-0.3,0.5-1.3,0
			C333.5,151.8,330.2,149.6,325.3,149.4z"/>
		<g>
			<path style="fill:#FFFFFF;" d="M350.8,182C350.8,182.1,350.8,182.1,350.8,182C350.8,182.1,350.8,182.1,350.8,182z"/>
			<path style="fill:#FFFFFF;" d="M371.7,176.3c-0.3-14.3-14.2-14.2-14.2-14.2s-13.9-0.1-14.2,14.2c0,0-0.2,14.1,14.2,14.7
				C371.9,190.4,371.7,176.3,371.7,176.3z M364.1,182.3c-1.3,7-6.7,6-6.7,6s-5.4,1-6.7-6c-1.2-6.5-0.2-1,0-0.3
				c-0.1-0.7-1.1-6.5,0.4-13.2c0,0,1.2-4.5,6.3-4.4c5.1-0.1,6.3,4.4,6.3,4.4c1.4,6.7,0.5,12.4,0.4,13.2
				C364.3,181.3,365.3,175.8,364.1,182.3z"/>
			<path style="fill:#FFFFFF;" d="M364.1,182C364.1,182.1,364.1,182.1,364.1,182C364.1,182.1,364.1,182.1,364.1,182z"/>
		</g>
		<path style="fill:#FFFFFF;" d="M375.6,162.4c0,0-1,0-1,0.8v0.9c0,0-0.1,0.9,1.2,0.9l0.6-0.1c0,0,1.3-0.2,1.3,1.9v14.4
			c0,0,0.5,9.9,11.7,9.9c0,0,11.5,0.6,11.1-10.3v-14.3c0,0-0.3-1.7,1.5-1.7h0.5c0,0,0.7,0,0.7-0.8v-0.8c0,0,0.3-0.9-0.8-0.9h-6.7
			c0,0-0.9,0-0.9,0.7l-0.1,0.7c0,0-0.2,1.1,1,1.1c0,0,1.8-0.3,1.9,2.1v14c0,0,0.7,7.3-5.9,7.3c0,0-7.4,1.3-7.4-7.8v-14
			c0,0,0.2-1.6,1.6-1.6h0.4c0,0,0.7,0.1,0.7-0.9v-0.7c0,0,0.2-0.9-0.7-0.9H375.6z"/>
		<path style="fill:#FFFFFF;" d="M427.6,162.4c0,0-0.8,0-1.2,0.7l-1.7,4.2c0,0-0.4,0.9,0.6,0.9h1.3c0,0,0.5,0.2,1-0.8l1-1.9
			c0,0,0.5-0.7,1.4-0.6h4c0,0,1.2-0.2,1.2,1.5v20.3c0,0,0.2,1.4-0.6,1.5h-1.1c0,0-0.6,0.1-0.6,0.7v1.1c0,0-0.1,0.8,0.8,0.8h10.5
			c0,0,0.7,0.1,0.7-0.7v-0.8c0,0,0.2-1-0.6-1l-1.2,0c0,0-1.3,0.3-1.2-1.9v-19.9c0,0-0.4-1.5,1.1-1.5h4c0,0,0.8-0.2,1.4,0.8l1,1.7
			c0,0,0.4,0.8,1.3,0.8h1.3c0,0,0.9,0,0.5-1.1l-1.8-4.2c0,0-0.1-0.6-1.4-0.6H427.6z"/>
	</g>
</g>
</svg>
