<?xml version="1.0" encoding="utf-8"?>
<!-- Generator: Adobe Illustrator 22.1.0, SVG Export Plug-In . SVG Version: 6.00 Build 0)  -->
<svg version="1.1" id="logos_mediatree" xmlns="http://www.w3.org/2000/svg" xmlns:xlink="http://www.w3.org/1999/xlink" x="0px"
	 y="0px" viewBox="0 0 566.9 308.3" style="enable-background:new 0 0 566.9 308.3;" xml:space="preserve">
<g>
	<path style="fill:#FFFFFF;" d="M309.4,123.3V90.9h32.5v-4.4h-32.5V54H305v32.5h-32.5v4.4H305v32.4H309.4z M244.2,180.9h5.1v-32.4
		h31.3v-4.4h-31.3v-31.3h-5.4v31.3h-31.1v4.4h31.3V180.9z M268.8,249.2c-11.6,0-19.5-6-19.5-20.4v-42.7h-5.1v42.7
		c0,14.1,6.7,24.8,23.5,24.8c4.7-0.1,9.3-1,13.7-2.5l-0.7-4C276.9,248.5,272.8,249.2,268.8,249.2z M166.9,140.8
		c-18.8,0-35.1,11.9-41.1,32.7h-0.5c-3.3-18.4-13-32.7-35.3-32.7c-17.2,0-33.7,11.4-39.9,31.3H50v-28.3h-5.1v107h5.1v-53.4
		c0-32.7,18.1-52.2,40.2-52.2c25.5,0,31.3,23.9,31.3,41.5v64.1h5.1v-53.4c0-32.7,18.4-52.2,40.4-52.2c25.5,0,32.5,23.9,32.5,41.5
		v64.1h5.1v-64.5C204.4,164,195.6,140.8,166.9,140.8L166.9,140.8z"/>
	<path style="fill:#FFFFFF;" d="M338.4,239.4v14.2h-5.7V241c0-2.7-0.6-6.1-4.3-6.1s-5.1,3.3-5.1,6.2v12.4h-5.7v-13.8
		c0-2.8-1.3-4.9-4.2-4.9c-3.4,0-5,3.1-5,6.2v12.5h-5.7v-22.8h5.4v3.7h0.1c2-3.9,6.8-5.4,10.7-3.4c1.5,0.8,2.6,1.9,3.4,3.4
		c1.5-2.8,4.4-4.5,7.5-4.3C335.9,230.2,338.4,234.7,338.4,239.4z"/>
	<path style="fill:#FFFFFF;" d="M366.7,244h-17.3c0.4,3.3,3.2,5.7,6.5,5.6c2.4,0.1,4.7-1,6-2.9l3.8,3c-2.2,3-5.5,4.5-9.8,4.5
		c-7.1,0-12.2-4.5-12.2-11.9c0-7.4,5.2-12.2,12.1-12.2c6.3,0,11,4.1,11,12.3C366.8,243,366.7,243.5,366.7,244z M361.1,240
		c0-2.9-1.6-5.5-5.4-5.5c-3.2-0.1-6,2.3-6.3,5.5H361.1z"/>
	<path style="fill:#FFFFFF;" d="M395.4,253.6H390v-3.4h-0.1c-1.7,2.6-4.7,4.2-7.8,4.1c-6.9,0-11.2-5.5-11.2-12.2s4.5-12,11-12
		c3-0.1,5.8,1.2,7.6,3.5h0.2v-16h5.7L395.4,253.6L395.4,253.6L395.4,253.6z M383.2,249.5c4.2,0,6.7-3.8,6.7-7.3
		c0-3.6-2.5-7.4-6.7-7.4c-4.4,0-6.5,3.8-6.5,7.3S378.8,249.5,383.2,249.5L383.2,249.5z"/>
	<path style="fill:#FFFFFF;" d="M405.2,219.7c1.9-0.2,3.5,1.2,3.7,3.1c0.2,1.9-1.2,3.5-3.1,3.7c-0.2,0-0.4,0-0.6,0
		c-1.9,0.1-3.5-1.3-3.6-3.2c-0.1-1.9,1.3-3.5,3.2-3.6l0,0H405.2z M402.4,230.8h5.7v22.8h-5.7V230.8z"/>
	<path style="fill:#FFFFFF;" d="M429.2,250.7H429c-1.2,2-3.9,3.5-7.1,3.5c-3.7,0-8.6-1.8-8.6-7.1c0-6.8,8.6-7.7,15.7-7.7v-0.6
		c0-2.8-2.4-4.2-5.2-4.2c-2.3,0-4.6,1-6.2,2.6l-2.9-3.5c2.7-2.3,6.1-3.6,9.6-3.6c8.1,0,10.2,5.1,10.2,9.6v13.9h-5.3L429.2,250.7z
		 M429.1,243.2h-1.3c-3.6,0-8.7,0.4-8.7,3.8c0,2.2,2.1,2.8,4,2.8c3.9,0,6-2.2,6-5.8L429.1,243.2z"/>
	<path style="fill:#FFFFFF;" d="M437.4,235.4v-4.5h4v-6.6h5.6v6.6h5.7v4.5H447V246c0,2.1,0.5,3.5,3,3.5c0.8,0,1.7-0.1,2.4-0.5
		l0.2,4.4c-1.2,0.4-2.5,0.6-3.8,0.6c-6,0-7.4-3.7-7.4-8v-10.6L437.4,235.4z"/>
	<path style="fill:#FFFFFF;" d="M456.8,230.8h5.5v3.8h0.1c1.1-2.7,3.8-4.4,6.7-4.4c0.5,0,0.9,0.1,1.4,0.2v5.2
		c-0.6-0.2-1.2-0.3-1.8-0.3c-3.3-0.1-6,2.5-6.1,5.8c0,0.1,0,0.2,0,0.4v12.2h-5.7L456.8,230.8L456.8,230.8z"/>
	<path style="fill:#FFFFFF;" d="M494.9,244h-17.3c0.4,3.3,3.2,5.7,6.5,5.6c2.4,0.1,4.7-1,6-2.9l3.8,3c-2.2,3-5.5,4.5-9.8,4.5
		c-7.1,0-12.2-4.5-12.2-11.9c0-7.4,5.2-12.2,12.1-12.2c6.3,0,11,4.1,11,12.3C494.9,243,494.9,243.5,494.9,244z M489.2,240
		c0-2.9-1.6-5.5-5.4-5.5c-3.2-0.1-6,2.3-6.3,5.5H489.2z"/>
	<path style="fill:#FFFFFF;" d="M522.1,244h-17.3c0.4,3.3,3.2,5.7,6.5,5.6c2.4,0.1,4.7-1,6-2.9l3.8,3c-2.2,3-5.5,4.5-9.8,4.5
		c-7.1,0-12.2-4.5-12.2-11.9c0-7.4,5.2-12.2,12.1-12.2c6.3,0,11,4.1,11,12.3C522.1,243,522.1,243.5,522.1,244z M516.4,240
		c0-2.9-1.6-5.5-5.4-5.5c-3.2-0.1-6,2.3-6.3,5.5H516.4z"/>
</g>
</svg>
