<?xml version="1.0" encoding="utf-8"?>
<!-- Generator: Adobe Illustrator 22.1.0, SVG Export Plug-In . SVG Version: 6.00 Build 0)  -->
<svg version="1.1" id="logos_metatron" xmlns="http://www.w3.org/2000/svg" xmlns:xlink="http://www.w3.org/1999/xlink" x="0px"
	 y="0px" viewBox="0 0 566.9 308.3" style="enable-background:new 0 0 566.9 308.3;" xml:space="preserve">
<polygon style="fill:#FFFFFF;" points="198.1,173.9 198.1,182.2 214.5,182.2 214.5,224 223.9,224 223.9,182.2 240.4,182.2 
	240.4,173.9 "/>
<polygon style="fill:#FFFFFF;" points="185.3,182.2 185.3,173.9 147.1,173.9 147.1,224 185.3,224 185.3,215.5 156.3,215.5 
	156.3,203 181.1,203 181.1,194.7 156.3,194.7 156.3,182.2 "/>
<polygon style="fill:#FFFFFF;" points="286.5,173.9 286.5,182.2 303,182.2 303,224 312.4,224 312.4,182.2 328.8,182.2 328.8,173.9 
	"/>
<path style="fill:#FFFFFF;" d="M265.8,173.9h-2.6L238,224h10.4l3.7-7.3H277l3.7,7.3H291L265.8,173.9z M272.7,208.2h-16.4l8.2-18
	L272.7,208.2z"/>
<polygon style="fill:#FFFFFF;" points="128.8,173.9 107.1,196.1 85.4,173.9 82,173.9 82,224 91.2,224 91.2,193.2 105.6,207.9 
	108.5,207.9 122.8,193.2 122.8,224 132.1,224 132.1,173.9 "/>
<polygon style="fill:#FFFFFF;" points="494.5,173.9 494.5,205.4 461.6,173.9 458.5,173.9 458.5,224 467.9,224 467.9,192.8 
	500.3,224 503.8,224 503.8,173.9 "/>
<path style="fill:#FFFFFF;" d="M421.3,172.5h-1.6c-13.9,0-25.2,11.3-25.2,25.2v2.1c0,13.9,11.3,25.2,25.2,25.2h1.6
	c13.9,0,25.2-11.3,25.2-25.2v-1.9C446.5,183.9,435.3,172.6,421.3,172.5 M421.3,215.5h-1.6c-8.6,0-15.5-7-15.5-15.5l0,0v-2
	c0-8.6,7-15.5,15.5-15.5l0,0h1.6c8.6,0,15.5,7,15.5,15.5l0,0v2.1C436.9,208.5,429.9,215.5,421.3,215.5L421.3,215.5"/>
<path style="fill:#FFFFFF;" d="M373.2,206.8c6-2.9,9.7-9,9.7-15.7c0-9.5-7.8-17.3-17.3-17.3h-24.9V224h9.4v-15.6h12.6l11.9,15.4
	h10.1v-2.2L373.2,206.8z M373.5,191.2c0.1,4.9-3.8,8.8-8.6,8.9h-14.6v-17.9h14.7c4.8,0,8.7,4,8.7,8.8
	C373.5,191.1,373.5,191.1,373.5,191.2"/>
<line style="fill:none;" x1="93.9" y1="114.1" x2="120.3" y2="140.3"/>
<line style="fill:none;" x1="93.9" y1="140.3" x2="120.3" y2="114.1"/>
<polygon style="fill:#1A1A1A;" points="126.1,126.4 109.1,126.4 121.1,114.2 120,113 107.9,125 107.9,108 106.2,108 106.2,125 
	94.2,113 92.8,114.2 105,126.4 87.9,126.4 87.9,128 105,128 92.8,140 94.2,141.3 106.2,129.3 106.2,146.3 107.9,146.3 107.9,129.3 
	120,141.3 121.1,140 109.1,128 126.1,128 "/>
<path style="fill:#1A1A1A;" d="M110,127.1c0,1.6-1.3,2.9-2.9,2.9s-2.9-1.3-2.9-2.9s1.3-2.9,2.9-2.9C108.7,124.2,110,125.5,110,127.1
	"/>
<path style="fill:#FFFFFF;" d="M107.1,130.5c-1.8,0-3.2-1.4-3.2-3.2s1.4-3.2,3.2-3.2s3.2,1.4,3.2,3.2
	C110.3,129,108.8,130.5,107.1,130.5 M107.1,124.6c-1.4,0-2.6,1.1-2.6,2.5c0,1.5,1.2,2.6,2.6,2.6c1.5,0,2.6-1.2,2.6-2.6
	C109.6,125.7,108.4,124.7,107.1,124.6"/>
<polygon style="fill:#FFFFFF;" points="107.1,142.1 96.5,152.6 96.5,157.4 96.5,159.4 107.1,169.9 117.6,159.4 117.6,157.4 
	117.6,152.6 "/>
<polygon style="fill:#FFFFFF;" points="107.1,84.4 96.5,95 96.5,96.9 96.5,101.7 107.1,112.3 117.6,101.7 117.6,96.9 117.6,95 "/>
<polygon style="fill:#FFFFFF;" points="93.1,98.4 91.7,96.9 76.7,96.9 76.7,111.9 78.2,113.2 81.6,116.5 96.5,116.5 96.5,101.7 "/>
<polygon style="fill:#FFFFFF;" points="135.9,141 132.6,137.7 117.6,137.7 117.6,152.6 121,156 122.3,157.4 137.3,157.4 
	137.3,142.5 "/>
<polygon style="fill:#FFFFFF;" points="139.3,116.5 137.3,116.5 132.6,116.5 122,127.1 132.6,137.7 137.3,137.7 139.3,137.7 
	149.9,127.1 "/>
<polygon style="fill:#FFFFFF;" points="81.6,116.5 76.7,116.5 74.8,116.5 64.3,127.1 74.8,137.7 76.7,137.7 81.6,137.7 92.1,127.1 
	"/>
<polygon style="fill:#FFFFFF;" points="81.6,137.7 78.2,141 76.7,142.5 76.7,157.4 91.7,157.4 93.1,156 96.5,152.6 96.5,137.7 "/>
<polygon style="fill:#FFFFFF;" points="122.3,96.9 121,98.4 117.6,101.7 117.6,116.5 132.6,116.5 135.9,113.2 137.3,111.9 
	137.3,96.9 "/>
<path style="fill:#1A1A1A;" d="M107.1,171.2l-11.4-11.4v-7.5l11.4-11.4l11.4,11.4v7.5L107.1,171.2z M97.4,159.1l9.7,9.7l9.7-9.7v-6
	l-9.7-9.7l-9.7,9.6V159.1z"/>
<path style="fill:#1A1A1A;" d="M107.1,113.6l-11.4-11.4v-7.5l11.4-11.4l11.4,11.4v7.5L107.1,113.6z M97.4,101.3l9.7,9.7l9.7-9.7v-6
	l-9.7-9.7l-9.7,9.7V101.3z"/>
<path style="fill:#1A1A1A;" d="M97.4,117.6H81.1l-5.3-5.3V96h16.3l5.3,5.3V117.6z M82,115.7h13.6V102l-4.2-4.2H77.8v13.6L82,115.7z"
	/>
<path style="fill:#1A1A1A;" d="M138.3,158.3H122l-5.3-5.3v-16.2H133l5.3,5.3L138.3,158.3z M122.7,156.6h13.6v-13.6l-4.2-4.2h-13.6
	v13.6L122.7,156.6z"/>
<path style="fill:#1A1A1A;" d="M139.6,138.7h-7.5l-11.4-11.4l11.4-11.4h7.5l11.4,11.4L139.6,138.7z M132.9,136.8h6l9.7-9.7l-9.7-9.7
	h-6l-9.7,9.7L132.9,136.8z"/>
<path style="fill:#1A1A1A;" d="M82,138.7h-7.5l-11.4-11.4l11.4-11.4H82l11.4,11.4L82,138.7z M75.1,136.8h6l9.7-9.7l-9.7-9.7h-6
	l-9.7,9.7L75.1,136.8z"/>
<path style="fill:#1A1A1A;" d="M92.1,158.3H75.8v-16.3l5.3-5.3h16.3V153L92.1,158.3z M77.8,156.6h13.6l4.2-4.2v-13.6H82l-4.2,4.2
	L77.8,156.6z"/>
<path style="fill:#1A1A1A;" d="M132.9,117.6h-16.3v-16.3l5.3-5.3h16.3v16.3L132.9,117.6z M118.5,115.7h13.6l4.2-4.2V97.8h-13.6
	l-4.2,4.2L118.5,115.7z"/>
</svg>
