<?xml version="1.0" encoding="utf-8"?>
<!-- Generator: Adobe Illustrator 22.1.0, SVG Export Plug-In . SVG Version: 6.00 Build 0)  -->
<svg version="1.1" id="logos_costa" xmlns="http://www.w3.org/2000/svg" xmlns:xlink="http://www.w3.org/1999/xlink" x="0px"
	 y="0px" viewBox="0 0 566.9 308.3" style="enable-background:new 0 0 566.9 308.3;" xml:space="preserve">
<path style="display:none;" d="M320.5,184.3c2.5-10.2-0.6-19.8-8.4-31.6c-7.5-11.3-10.7-17-10.3-25.9c0.5-11.8,8.1-21.3,19.6-28.4
	H285c-13.3,9.8-18.4,23.7-18.3,33.4c0.1,8.9,2.9,15.4,8.8,23.8c4.8,6.9,9.6,13,9.8,21.1c0.2,10.3-7.5,19-17.6,25.7l30.8,8.4
	C308,205.1,317.9,194.7,320.5,184.3L320.5,184.3z M341.4,124.5h19.5v68.7h28.5v-68.7h19.5V99.8h-67.5V124.5z M137.5,181.4L118,161.9
	c-8.4,8.4-22.1,8.3-30.5-0.1c-8.4-8.4-8.3-22.1,0.1-30.5c8.4-8.4,22.1-8.3,30.5,0.1l0.1,0.1l19.5-19.5
	c-19.1-19.3-50.2-19.5-69.5-0.4s-19.5,50.2-0.4,69.5s50.2,19.5,69.5,0.4L137.5,181.4z M458.4,155.7l7-29.3h0.3l6.9,29.3H458.4z
	 M483.1,99.8h-34.3l-29.6,93.4h30.4l3.9-15.2h24.6l3.9,15.2h31.4L483.1,99.8z M197.6,168.2c-11.9,0-21.5-9.7-21.5-21.6
	c0-11.9,9.7-21.5,21.6-21.5c11.9,0,21.5,9.7,21.5,21.5c0,11.9-9.6,21.6-21.5,21.6C197.7,168.2,197.7,168.2,197.6,168.2z M197.6,97.5
	c-27.1,0-49.1,22-49.1,49.2s22,49.1,49.2,49.1c27.1,0,49.1-22,49.1-49.2C246.8,119.5,224.8,97.5,197.6,97.5L197.6,97.5z"/>
<g style="display:none;">
	<path id="path22" style="display:inline;fill:#FFFFFF;" d="M53.8,203.9H84v-9.2H53.8V203.9z"/>
	<path id="path24" style="display:inline;fill:#FFFFFF;" d="M53.8,192H84v-9.2H53.8V192z"/>
	<path id="path26" style="display:inline;fill:#FFFFFF;" d="M53.8,180.1H84V171H53.8V180.1z"/>
	<path id="path28" style="display:inline;fill:#FFFFFF;" d="M53.8,168.2H84v-9.1H53.8V168.2z"/>
	<path id="path30" style="display:inline;fill:#FFFFFF;" d="M53.8,156.3H84v-9.1H53.8V156.3z"/>
	<path id="path32" style="display:inline;fill:#FFFFFF;" d="M87.7,203.9h30.2v-9.2H87.7V203.9z"/>
	<path id="path34" style="display:inline;fill:#FFFFFF;" d="M87.7,192h30.2v-9.2H87.7V192z"/>
	<path id="path36" style="display:inline;fill:#FFFFFF;" d="M87.7,180.1h30.2V171H87.7V180.1z"/>
	<path id="path38" style="display:inline;fill:#FFFFFF;" d="M121.5,203.9h30.2v-9.2h-30.2V203.9z"/>
	<path id="path40" style="display:inline;fill:#FFFFFF;" d="M121.5,192h30.2v-9.2h-30.2V192z"/>
	<path id="path42" style="display:inline;fill:#FFFFFF;" d="M121.5,180.1h30.2V171h-30.2V180.1z"/>
	<path id="path44" style="display:inline;fill:#FFFFFF;" d="M121.5,168.2h30.2v-9.1h-30.2V168.2z"/>
	<path id="path46" style="display:inline;fill:#FFFFFF;" d="M121.5,156.3h30.2v-9.1h-30.2V156.3z"/>
	<path id="path48" style="display:inline;fill:#FFFFFF;" d="M121.5,144.5h30.2v-9.1h-30.2V144.5z"/>
	<path id="path50" style="display:inline;fill:#FFFFFF;" d="M121.5,132.6h30.2v-9.1h-30.2V132.6z"/>
	<path id="path52" style="display:inline;fill:#FFFFFF;" d="M155.3,203.9h30.2v-9.2h-30.2V203.9z"/>
	<path id="path54" style="display:inline;fill:#FFFFFF;" d="M155.3,192h30.2v-9.2h-30.2V192z"/>
	<path id="path56" style="display:inline;fill:#FFFFFF;" d="M155.3,180.1h30.2V171h-30.2V180.1z"/>
	<path id="path58" style="display:inline;fill:#FFFFFF;" d="M155.3,168.2h30.2v-9.1h-30.2V168.2z"/>
	<path id="path60" style="display:inline;fill:#FFFFFF;" d="M155.3,156.3h30.2v-9.1h-30.2V156.3z"/>
	<path id="path62" style="display:inline;fill:#FFFFFF;" d="M189.2,203.9h30.2v-9.2h-30.2V203.9z"/>
	<path id="path64" style="display:inline;fill:#FFFFFF;" d="M189.2,192h30.2v-9.2h-30.2V192z"/>
	<path id="path66" style="display:inline;fill:#FFFFFF;" d="M189.2,180.1h30.2V171h-30.2V180.1z"/>
	<path id="path68" style="display:inline;fill:#FFFFFF;" d="M189.2,168.2h30.2v-9.1h-30.2V168.2z"/>
	<path id="path70" style="display:inline;fill:#FFFFFF;" d="M189.2,156.3h30.2v-9.1h-30.2V156.3z"/>
	<path id="path72" style="display:inline;fill:#FFFFFF;" d="M189.2,144.5h30.2v-9.1h-30.2V144.5z"/>
	<path id="path74" style="display:inline;fill:#FFFFFF;" d="M189.2,132.6h30.2v-9.1h-30.2V132.6z"/>
	<path id="path76" style="display:inline;fill:#FFFFFF;" d="M189.2,120.7h30.2v-9.1h-30.2V120.7z"/>
	<path id="path78" style="display:inline;fill:#FFFFFF;" d="M245,192.1h7c10.4,0,12.1-5.5,12.1-22.9v-34.9c0-15-1.3-20.1-13.2-20.1
		H245L245,192.1z M231.2,102.4h22.6c22.8,0,24.9,8,24.9,37.5V170c0,26-5.2,33.8-27.4,33.8h-20.1V102.4"/>
	<path id="path80" style="display:inline;fill:#FFFFFF;" d="M284.3,102.4h38.4v12.1H298v31.8h22.9v11.9H298v33.7h24.7v12.1h-38.4
		L284.3,102.4"/>
	<path id="path82" style="display:inline;fill:#FFFFFF;" d="M328.2,102.4h38.4v12.1h-24.7v31.8h22.9v11.9h-22.9v33.7h24.7v12.1
		h-38.4L328.2,102.4"/>
	<path id="path84" style="display:inline;fill:#FFFFFF;" d="M422.4,102.4h38.4v12.1h-24.7v31.8H459v11.9h-22.9v33.7h24.7v12.1h-38.4
		L422.4,102.4"/>
	<path id="path86" style="display:inline;fill:#FFFFFF;" d="M372.1,192l31.6-77.7h-31.6v-11.9h44.8v11.9L385.8,192h31.1v11.9h-44.8
		V192"/>
	<path id="path88" style="display:inline;fill:#FFFFFF;" d="M480,147.2h4.3c11.1,0,12.8-1.4,12.8-16.6s-1.3-16.4-10.1-16.4h-7V147.2
		z M466.3,102.4h21.9c20.5,0,22,5.2,22,27.4c0,13.6-1.3,20.3-12.8,23.8l0,0c9.6,1,12.8,6,12.8,15.5v22.1c-0.1,4.2,0.2,8.5,0.9,12.7
		h-13.7c-1.4-2.5-0.9-5-0.9-9.1v-22.9c0-9.6-1.8-11.9-11.1-11.9H480v43.9h-13.7V102.4"/>
</g>
<g style="display:none;">
	<path style="display:inline;fill:#FFFFFF;" d="M299.1,169.7c0,12.3-15.3,11.6-15.3,11.6h-15.3v-22.3h15.4
		C299.6,159,299.1,169.7,299.1,169.7 M268.4,125h11.7c12.1,0.6,11.7,9.7,11.7,9.7c0,11.2-13.4,11.4-13.4,11.4h-10L268.4,125z
		 M296.3,150.5c0,0,10.5-4.5,10.4-16.3c0,0,1.6-19.4-24.2-21.8h-28.6v81.5h32.8c0,0,27.4,0.1,27.4-23
		C314.1,170.9,314.7,155.2,296.3,150.5 M222.3,96.4h120.3v113.4H222.3L222.3,96.4z"/>
	<path style="display:inline;fill:#FFFFFF;" d="M160.4,169.7c0,12.3-15.3,11.6-15.3,11.6h-15.3v-22.3H145
		C160.8,159,160.3,169.7,160.4,169.7 M129.7,125h11.8c12.1,0.6,11.7,9.7,11.7,9.7c0,11.2-13.4,11.4-13.4,11.4h-10L129.7,125z
		 M157.5,150.6c0,0,10.5-4.5,10.4-16.3c0,0,1.6-19.4-24.2-21.8h-28.6v81.5h32.8c0,0,27.4,0.1,27.4-23
		C175.3,170.9,176,155.2,157.5,150.6 M83.5,96.4h120.3v113.4H83.6L83.5,96.4z"/>
	<path style="display:inline;fill:#FFFFFF;" d="M456.8,118.3v15.1c0,0-14.6-9-30.9-9.2c0,0-30.3-0.6-31.7,29c0,0-1.1,27.3,31.3,28.8
		c0,0,13.6,1.6,32-10.1v15.6c0,0-24.7,14.6-53.4,3.4c0,0-24.1-8.8-25-37.7c0,0-1-29.7,31.1-39.5c0,0,8.6-3.3,24-1.8
		C434.2,111.7,443.4,112.7,456.8,118.3 M361,209.8h120.4V96.4H361.1L361,209.8z"/>
</g>
<g id="layer1" transform="translate(84.441481,-119.13099)">
	<g id="g2685" transform="matrix(1.9077717,0,0,1.9077717,-87.724361,-123.99984)">
		<path id="path2619" style="fill:#FFFFFF;" d="M30.7,207.5h1.8c3.8,0,5.8-0.8,5.8-3.4c0-1.9-2.1-3.1-5.5-3.1
			c-1.1,0-1.6,0.1-2.1,0.1V207.5z M25.8,202.5c0-1.6-1.5-1.6-2.7-1.6h-0.7v-0.6c1.2,0,3.5,0.1,5.8,0.1c2.3,0,4.1-0.1,6.1-0.1
			c4.7,0,9,0.7,9,3.8c0,1.9-2.3,3.1-5.2,3.8l6.4,5.5c1.1,0.9,1.8,1.2,3.7,1.3v0.6c-1.2,0-2.4-0.1-3.7-0.1c-1.2,0-2.4,0.1-3.5,0.1
			c-2.9-2.2-5.4-4.5-7.8-7h-2.5v4.6c0,1.7,1.4,1.7,3.1,1.7h0.7v0.6c-2.1,0-4.3-0.1-6.5-0.1c-1.8,0-3.6,0.1-5.5,0.1v-0.6h0.7
			c1.4,0,2.7-0.4,2.7-1.2V202.5"/>
		<path id="path2621" style="fill:#FFFFFF;" d="M56,214.7h0.4c1,0,2.1-0.1,2.1-0.9v-8.5c0-0.8-1.1-0.9-2.1-0.9H56v-0.5
			c1.1,0,2.8,0.1,4.2,0.1c1.4,0,3.1-0.1,4.4-0.1v0.5h-0.4c-1,0-2.1,0.1-2.1,0.9v8.5c0,0.8,1.1,0.9,2.1,0.9h0.4l0,0.5
			c-1.4,0-3-0.1-4.5-0.1c-1.4,0-3,0.1-4.2,0.1V214.7"/>
		<path id="path2623" style="fill:#FFFFFF;" d="M93.1,207.3c-0.8-1.6-2.1-2.9-6.3-2.9c-4.6,0-7.1,2.1-7.1,4.9c0,2.7,2.4,5.4,7.7,5.4
			c3,0,5-1.1,5.8-2.7l0.8,0.1c-0.4,0.9-0.6,1.7-0.7,2.6c-1.6,0.4-3.9,0.7-6.5,0.7c-6.4,0-11.1-2-11.1-6c0-3.6,5.1-5.7,10.9-5.7
			c3.3,0,4.4,0.6,7,0.8c0,0.9,0,1.8,0.2,2.7L93.1,207.3"/>
		<path id="path2625" style="fill:#FFFFFF;" d="M110.1,213.8c0,0.9,1.2,0.9,2.2,0.9h0.5v0.5c-1.2,0-3.1-0.1-4.6-0.1
			c-1.4,0-3.1,0.1-4.3,0.1v-0.5h0.4c1,0,2.1-0.1,2.1-0.9v-8.5c0-0.8-1.1-0.9-2.1-0.9H104v-0.5c1.1,0,2.8,0.1,4.3,0.1
			c1.5,0,3.3-0.1,4.6-0.1v0.5h-0.5c-1,0-2.2,0-2.2,0.9v3.5h10.3v-3.5c0-0.9-1.2-0.9-2.2-0.9h-0.5v-0.5c1.2,0,3,0.1,4.6,0.1
			c1.4,0,3.1-0.1,4.3-0.1v0.5H126c-1,0-2.1,0.1-2.1,0.9v8.5c0,0.8,1.1,0.9,2.1,0.9h0.4v0.5c-1.1,0-2.8-0.1-4.3-0.1
			c-1.5,0-3.3,0.1-4.6,0.1v-0.5h0.5c1,0,2.2,0,2.2-0.9v-4h-10.3V213.8"/>
		<path id="path2627" style="fill:#FFFFFF;" d="M136.6,214.7h0.4c1,0,2.1-0.1,2.1-0.9v-8.5c0-0.8-1.1-0.9-2.1-0.9h-0.4v-0.5
			c1.7,0,4.7,0.1,7,0.1s5.3-0.1,7.2-0.1c-0.1,0.7,0,1.8,0.1,2.5l-0.8,0.1c-0.1-1-0.5-1.9-3.4-1.9h-3.9v4.2h3.4
			c1.7,0,2.1-0.5,2.2-1.4h0.8c-0.1,0.6-0.1,1.3-0.1,1.9c0,0.6,0,1.2,0.1,1.8l-0.8,0.1c-0.2-1-0.3-1.6-2.2-1.6h-3.4v3.8
			c0,1,1.6,1,3.4,1c3.4,0,4.9-0.1,5.7-2l0.8,0.1c-0.4,0.9-0.7,1.7-1,2.6c-1.8,0-5.1-0.1-7.6-0.1s-5.9,0.1-7.5,0.1V214.7"/>
		<path id="path2629" style="fill:#FFFFFF;" d="M175.6,212.4l6.7-8.4c0.8,0,1.9,0.1,2.9,0.1c1,0,2-0.1,3-0.1v0.5h-0.3
			c-0.8,0-2.6,0-2.6,0.7c0,0.4,0.1,0.9,0.1,1.3l1.1,7.4c0.1,0.8,0.8,0.9,2.5,0.9v0.5c-1.3,0-2.7-0.1-4.1-0.1c-1.6,0-3.1,0-4.7,0.1
			v-0.5c1.5,0,2.4,0,2.4-0.8c0-0.2,0-0.4,0-0.8l-0.8-6.8h-0.1l-7.2,9.1h-0.7l-6.8-8.9H167l-1,7.1c0,0.5,0.2,0.8,0.6,0.9
			c0.4,0.1,1,0.2,1.8,0.2h0.3v0.5c-1.3,0-2.6-0.1-3.8-0.1c-1.1,0-2.2,0-3.3,0.1v-0.5h0.4c2.2,0,2.3-0.6,2.6-1.8l0.8-4.5
			c0.2-1.1,0.3-2.2,0.3-2.8c0-0.9-1.2-1.2-2.5-1.2H163v-0.5c1.2,0,2.3,0.1,3.4,0.1c0.8,0,1.7-0.1,2.5-0.1L175.6,212.4"/>
		<path id="path2631" style="fill:#FFFFFF;" d="M208.2,214.7c5.5,0,6.4-2.8,6.4-5.1c0-2.4-2.2-5.2-6.9-5.2c-4.9,0-6.4,2.5-6.4,4.7
			C201.3,212,203.6,214.7,208.2,214.7z M207.8,203.7c6,0,10.8,2.1,10.8,5.6c0,3.7-4.7,6.2-10.7,6.2c-6,0-10.6-2.3-10.6-5.8
			C197.4,206.3,201.9,203.7,207.8,203.7"/>
		<path id="path2633" style="fill:#FFFFFF;" d="M245.2,212L245.2,212l0.1-6.1c0-1.3-1.6-1.5-2.5-1.5h-0.6v-0.5c1.3,0,2.6,0.1,4,0.1
			c1.2,0,2.3-0.1,3.5-0.1v0.5h-0.4c-1.2,0-2.5,0.1-2.5,2v7.3c0,0.6,0,1.1,0.2,1.6h-1.1l-14.5-9.3v6.6c0,1.4,0.5,1.9,2.7,1.9h0.5v0.5
			c-1.2,0-2.4-0.1-3.6-0.1c-1.3,0-2.6,0.1-3.8,0.1v-0.5h0.4c1.9,0,2.5-0.8,2.5-2v-6.8c0-0.9-1.3-1.5-2.6-1.5h-0.4v-0.5
			c1.1,0,2.2,0.1,3.2,0.1c0.8,0,1.7-0.1,2.5-0.1L245.2,212"/>
		<path id="path2635" style="fill:#FFFFFF;" d="M260.7,204.8c-2.1,0-2.2,0.3-2.6,1.5h-0.8c0.1-0.5,0.3-0.9,0.3-1.4
			c0.1-0.5,0.2-0.9,0.2-1.4h0.7c0.2,0.5,0.9,0.5,1.7,0.5h14.6c0.8,0,1.5,0,1.5-0.5l0.7,0.1c-0.1,0.4-0.2,0.9-0.3,1.3
			c-0.1,0.4-0.1,0.9-0.1,1.3l-0.8,0.2c-0.1-0.6-0.2-1.5-2.1-1.5h-4.6v8.6c0,1.2,1,1.4,2.3,1.4h0.5v0.5c-1.1,0-3.1-0.1-4.6-0.1
			c-1.7,0-3.7,0.1-4.8,0.1v-0.5h0.5c1.6,0,2.3-0.1,2.3-1.4v-8.6H260.7"/>
		<path id="path2665" style="fill:#FFFFFF;" d="M22.5,214.9c0-0.1,0.3-0.2,0.9-0.3c0.5-0.1,1.2-0.2,1.5-0.2c1-0.3,1-0.2,1-6.7l0-5.8
			l-0.3-0.4c-0.4-0.4-1.3-0.7-2.3-0.7c-0.5,0-0.7-0.1-0.7-0.2c0-0.2,0.8-0.2,7.9-0.2c6.7,0.1,8.1,0.1,8.9,0.3
			c1.4,0.3,2.9,1.1,3.4,1.8c0.4,0.5,0.5,0.7,0.5,1.4c0,0.7-0.1,1-0.4,1.4c-0.5,0.8-1.8,1.5-3.2,2c-0.7,0.2-1.3,0.4-1.4,0.4
			c-0.2,0.1,6.4,5.8,7.3,6.3c0.4,0.2,1.1,0.4,1.6,0.5c0.7,0.1,0.9,0.2,0.9,0.4c0,0.2-0.2,0.3-3.5,0.3H41l-1.3-1.1
			c-1.4-1.1-4.8-4.2-5.8-5.2l-0.6-0.6h-1.3h-1.3l0,2.7c0,2.7,0.1,2.7,0.4,3.1c0.4,0.4,1.5,0.7,2.7,0.7c0.4,0,0.6,0.1,0.6,0.2
			c0,0.2-0.8,0.2-5.9,0.2C23.5,215.1,22.5,215.1,22.5,214.9L22.5,214.9z M35.1,207.3c1.3-0.2,2.2-0.7,2.7-1.5
			c0.4-0.5,0.4-0.8,0.4-1.6c0-1.2-0.4-1.9-1.5-2.5c-1.3-0.7-3.6-1-5.5-0.8l-0.7,0.1v3.2v3.2h1.8C33.4,207.5,34.6,207.4,35.1,207.3
			L35.1,207.3z"/>
		<path id="path2667" style="fill:#FFFFFF;" d="M22.5,214.9c0-0.1,0.4-0.3,1.2-0.4c1.7-0.2,2.1-0.5,2.2-1.3c0.1-0.4,0.1-3.1,0-6
			c0-4.4-0.1-5.5-0.3-5.7c-0.4-0.4-1-0.7-2.1-0.8c-0.8-0.1-1.1-0.2-1.1-0.3c0-0.3,15.4-0.2,16.8,0.2c2.4,0.6,3.7,1.6,3.9,2.9
			c0.3,1.7-1,2.9-3.8,3.8l-1.3,0.4l0.4,0.4c0.8,0.8,4.5,3.9,5.7,4.9c1.2,1,2.1,1.4,3.3,1.5c0.3,0,0.5,0.1,0.5,0.3
			c0,0.2-0.2,0.3-3.6,0.3h-3.6l-1.5-1.2c-1.4-1.1-5.3-4.7-5.9-5.4c-0.3-0.3-0.4-0.3-1.6-0.3h-1.3l0.1,2.6c0,1.8,0.1,2.7,0.3,2.9
			c0.3,0.5,0.9,0.7,2.3,0.9c0.8,0.1,1.2,0.2,1.2,0.3c0,0.2-1,0.2-5.9,0.2C23.6,215.1,22.5,215.1,22.5,214.9z M34.9,207.3
			c1.2-0.2,2.4-0.7,2.8-1.3c0.5-0.7,0.7-1.7,0.5-2.5c-0.2-0.8-1.1-1.7-2.2-2.1c-1.1-0.4-3-0.6-4.3-0.5l-1.2,0.1v3.2v3.2l1.7,0
			C33.2,207.5,34.4,207.4,34.9,207.3L34.9,207.3z"/>
		<path id="path2669" style="fill:#FFFFFF;" d="M56,215c0-0.1,0.4-0.2,0.9-0.2c0.7-0.1,1-0.2,1.3-0.5c0.3-0.4,0.3-0.4,0.3-4.7
			c0-4.3,0-4.3-0.3-4.7c-0.3-0.3-0.5-0.4-1.3-0.5c-2.1-0.2-0.7-0.4,3.3-0.4c2.7,0,4.3,0.1,4.3,0.1c0,0.1-0.2,0.2-0.5,0.2
			c-0.8,0-1.7,0.3-1.9,0.5c-0.1,0.2-0.2,1.3-0.2,4.7s0,4.5,0.2,4.7c0.2,0.3,1.1,0.5,1.9,0.5c0.3,0,0.5,0.1,0.5,0.2
			c0,0.1-1.5,0.1-4.3,0.1C58,215.1,56,215.1,56,215z"/>
		<path id="path2671" style="fill:#FFFFFF;" d="M84.2,215.3c-4-0.4-6.9-1.8-7.9-3.8c-1.9-3.8,1.6-7,8.4-7.6c2-0.2,3.7-0.1,6.4,0.3
			c1,0.2,2,0.3,2.2,0.3c0.3,0,0.4,0.1,0.4,0.6c0,0.4,0.1,1,0.1,1.3c0.1,0.7,0.1,0.7-0.3,0.7c-0.2,0-0.4-0.1-0.4-0.1
			c0-0.3-1.3-1.6-1.9-1.8c-1.4-0.7-3.7-1-5.9-0.7c-2.6,0.3-4.3,1.3-5.1,3c-0.4,0.8-0.5,1.1-0.4,2c0.2,3.1,2.6,4.9,6.9,5.3
			c2.7,0.2,5.3-0.7,6.2-2.1c0.2-0.3,0.4-0.5,0.7-0.5c0.3,0,0.4,0,0.2,0.6c-0.1,0.3-0.2,0.9-0.3,1.2c-0.1,0.4-0.2,0.7-0.4,0.8
			C92.1,215.2,86.8,215.5,84.2,215.3z"/>
		<path id="path2673" style="fill:#FFFFFF;" d="M104.1,215c0-0.1,0.4-0.2,0.9-0.2c1.6-0.2,1.5,0.1,1.5-5.2c0-5.3,0.1-5-1.5-5.2
			c-2-0.2-0.6-0.4,3.5-0.4c4.1,0,5.5,0.1,3.3,0.3c-1.7,0.2-1.9,0.4-1.8,3l0,1.5h5.2h5.2l0-1.8c0-1.6,0-1.9-0.2-2.1
			c-0.3-0.4-1.1-0.6-2-0.6c-0.3,0-0.6-0.1-0.6-0.2c0-0.1,1.6-0.1,4.4-0.1c2.8,0,4.4,0.1,4.4,0.1c0,0.1-0.2,0.2-0.5,0.2
			c-0.8,0-1.7,0.3-1.9,0.5c-0.1,0.2-0.2,1.3-0.2,4.7s0,4.5,0.2,4.7c0.2,0.3,1.1,0.5,1.9,0.5c0.3,0,0.5,0.1,0.5,0.2
			c0,0.1-1.6,0.1-4.4,0.1c-2.8,0-4.4-0.1-4.4-0.1c0-0.1,0.3-0.2,0.6-0.2c0.9,0,1.7-0.3,2-0.6c0.2-0.3,0.3-0.6,0.3-2.4v-2.1l-5.2,0
			l-5.2,0l0,1.7c-0.1,2.8,0.1,3.1,1.8,3.2c2.2,0.2,0.8,0.3-3.3,0.3C106.1,215.1,104.1,215.1,104.1,215L104.1,215z"/>
		<path id="path2675" style="fill:#FFFFFF;" d="M136.6,215c0-0.1,0.4-0.2,0.9-0.2c1-0.1,1.4-0.3,1.6-0.8c0-0.2,0.1-2.2,0.1-4.5
			c0-4.2,0-4.2-0.3-4.6c-0.3-0.3-0.5-0.4-1.3-0.5c-2.4-0.2-0.4-0.4,6.1-0.4h7v0.5c0,0.3,0,0.8,0.1,1.2l0.1,0.7l-0.4,0
			c-0.3,0-0.4-0.1-0.5-0.4c-0.1-0.4-0.8-1-1.5-1.2c-0.3-0.1-1.8-0.2-3.2-0.2l-2.7,0v2.2v2.2l2.3-0.1c2.5-0.1,2.9-0.2,3.2-1
			c0.1-0.3,0.3-0.5,0.5-0.5c0.4,0,0.4,0,0.3,1.8c0,1.8,0,1.8-0.4,1.9c-0.3,0-0.4-0.1-0.5-0.4c-0.2-0.9-0.6-1.1-3.2-1.1l-2.3-0.1v2.1
			c0,2,0,2.1,0.3,2.4c0.5,0.4,1.3,0.5,4.1,0.4c2.9-0.1,3.5-0.2,4.4-1.3c0.4-0.5,0.6-0.6,0.8-0.6c0.1,0.1,0.2,0.2,0.2,0.3
			c0,0.1-0.2,0.6-0.4,1.2l-0.3,1h-7.5C140,215.1,136.6,215.1,136.6,215z"/>
		<path id="path2677" style="fill:#FFFFFF;" d="M170.5,210.9c-1.9-2.5-3.5-4.5-3.5-4.4c0,0-0.3,1.7-0.6,3.7c-0.5,3.5-0.5,3.6-0.2,4
			c0.3,0.4,0.9,0.6,2,0.6c0.3,0,0.6,0.1,0.6,0.2c0,0.1-1.3,0.1-3.6,0.1c-2.1,0-3.6-0.1-3.6-0.1c0-0.1,0.4-0.2,0.9-0.2
			c1.1-0.1,1.6-0.3,1.8-0.7c0.3-0.4,1.3-6,1.5-7.5c0.1-1.1,0.1-1.2-0.3-1.5c-0.3-0.2-0.7-0.4-1.4-0.5c-0.6-0.1-1.1-0.2-1.1-0.3
			c0-0.1,1.3-0.1,3-0.1h3l3.3,4.2c1.8,2.3,3.3,4.2,3.3,4.2c0,0,1.6-1.9,3.4-4.2l3.3-4.2l3,0c2.9,0,3.9,0.2,2,0.4
			c-1.2,0.1-1.9,0.3-2,0.7c0,0.1,0.2,2.2,0.6,4.7c0.7,5,0.7,4.9,2.2,5c2,0.2,0.7,0.4-3.4,0.4c-4.1,0-5.4-0.1-3.4-0.4
			c0.5-0.1,1-0.2,1.2-0.4l0.3-0.3l-0.4-3.8c-0.2-2.1-0.5-3.8-0.5-3.9c0-0.1-1.7,1.9-3.7,4.5c-2.6,3.3-3.7,4.6-3.9,4.6
			C174,215.4,173.1,214.3,170.5,210.9L170.5,210.9z"/>
		<path id="path2679" style="fill:#FFFFFF;" d="M205.7,215.3c-1.8-0.2-3.5-0.6-4.9-1.3c-1.6-0.8-2.3-1.5-2.9-2.6
			c-2.2-4.3,4-8.2,11.9-7.5c5.6,0.5,9,2.8,8.8,5.7c-0.3,3-3.6,5.2-8.6,5.7C208.2,215.4,207.4,215.4,205.7,215.3L205.7,215.3z
			 M210.9,214.5c2.5-0.6,3.9-2.4,3.7-5c-0.1-1.3-0.5-2.2-1.4-3.1c-1.5-1.6-4.1-2.3-6.9-1.9c-1.6,0.2-2.8,0.7-3.6,1.4
			c-1.1,1-1.3,1.6-1.3,3.3c0,1.3,0,1.5,0.4,2.3c0.2,0.5,0.8,1.2,1.1,1.5c1.1,1,2.1,1.4,4.2,1.8C207.7,214.8,210.1,214.7,210.9,214.5
			L210.9,214.5z"/>
		<path id="path2681" style="fill:#FFFFFF;" d="M238.9,211c-3.8-2.4-7.1-4.5-7.3-4.6l-0.3-0.2v3.8c0,3.8,0,3.8,0.3,4.2
			c0.3,0.3,0.5,0.4,1.6,0.6c0.7,0.1,1.2,0.2,1.2,0.3s-1.7,0.1-3.7,0.1c-3.6,0-4.8-0.1-2.9-0.4c1.2-0.1,1.8-0.5,2-1.2
			c0.2-0.8,0.2-7.8,0-8.2c-0.2-0.4-1.2-0.8-2.1-1c-1.5-0.2-0.6-0.4,2.2-0.4h2.9l6.1,3.9c3.4,2.2,6.2,4,6.3,4.1
			c0.1,0.1,0.2-0.6,0.2-3.2v-3.3l-0.4-0.5c-0.3-0.4-0.6-0.5-1.5-0.6c-0.6-0.1-1.1-0.2-1.1-0.3s1.6-0.1,3.6-0.1
			c3.5,0,4.6,0.1,2.7,0.4c-0.7,0.1-1,0.2-1.4,0.5l-0.5,0.4v5v5l-0.4,0C246,215.4,244.1,214.3,238.9,211L238.9,211z"/>
		<path id="path2683" style="fill:#FFFFFF;" d="M262.4,215c0-0.1,0.5-0.2,1-0.2c0.6,0,1.2-0.2,1.3-0.2c0.5-0.3,0.6-1.1,0.6-5.6
			l0-4.2l-3.1,0c-3.4,0-3.7,0.1-4.1,1c-0.1,0.3-0.2,0.4-0.5,0.4c-0.4,0-0.4,0.1-0.1-1.4c0.3-1.3,0.4-1.4,1.2-0.9
			c0.4,0.2,1.5,0.2,8.7,0.2c6.3,0,8.3-0.1,8.4-0.2c0.1-0.1,0.3-0.2,0.5-0.2c0.3,0,0.3,0,0.2,0.5c-0.1,0.3-0.1,0.8-0.1,1.1
			c0,0.7-0.1,0.9-0.5,1c-0.2,0-0.3-0.1-0.4-0.4c-0.1-0.2-0.3-0.6-0.6-0.8c-0.4-0.3-0.7-0.3-3.3-0.4l-2.8-0.1v4.6
			c0,3.8,0,4.7,0.2,4.9c0.2,0.3,1.2,0.7,2.1,0.7c0.3,0,0.5,0.1,0.5,0.1c0,0.1-1.6,0.1-4.6,0.1C264.5,215.1,262.4,215.1,262.4,215
			L262.4,215z"/>
	</g>
</g>
</svg>
