<?xml version="1.0" encoding="utf-8"?>
<!-- Generator: Adobe Illustrator 22.1.0, SVG Export Plug-In . SVG Version: 6.00 Build 0)  -->
<svg version="1.1" id="logos_superior" xmlns="http://www.w3.org/2000/svg" xmlns:xlink="http://www.w3.org/1999/xlink" x="0px"
	 y="0px" viewBox="0 0 566.9 308.3" style="enable-background:new 0 0 566.9 308.3;" xml:space="preserve">
<rect x="72.1" y="192.5" style="fill:#FFFFFF;" width="14.1" height="57.1"/>
<polygon style="fill:#FFFFFF;" points="111,220.3 111,249.7 97.4,249.7 97.4,192.1 102.9,192.1 132.5,220.9 132.5,192.5 
	146.1,192.5 146.1,250 141.8,250 "/>
<polygon style="fill:#FFFFFF;" points="170,205.6 153.1,205.6 153.1,192.5 200.9,192.5 200.9,205.6 184.1,205.6 184.1,249.7 
	170,249.7 "/>
<polygon style="fill:#FFFFFF;" points="208.1,192.5 246.4,192.5 246.4,205.6 221.9,205.6 221.9,214.7 241.4,214.7 241.4,227.3 
	221.9,227.3 221.9,237.4 246.4,237.4 246.4,249.7 208.1,249.7 "/>
<path style="fill:#FFFFFF;" d="M302.9,249.7h-15.4l-9.9-15.7c-0.7,0-1.5,0.1-2.2,0.1h-5.5v15.5h-14v-57.2h12.7c4.5,0,9,0.3,13.4,1.1
	c3.5,0.5,6.7,1.8,9.6,3.8c2.5,1.6,4.5,3.9,5.9,6.6c1.4,3.1,2.1,6.4,2,9.8c0.1,3.4-0.7,6.8-2.2,9.8c-1.6,2.8-3.9,5.1-6.7,6.6
	L302.9,249.7z M272.7,222.1c4.9,0,8.2-0.7,10.1-2.1c3.4-3,3.8-8.2,0.8-11.6l-0.8-0.8c-1.8-1.4-5.2-2.1-10.1-2.1h-2.9v16.8
	L272.7,222.1L272.7,222.1z"/>
<rect x="310.6" y="192.5" style="fill:#FFFFFF;" width="14.1" height="57.1"/>
<path style="fill:#FFFFFF;" d="M350.6,248.7c-3.3-1.4-6.2-3.4-8.7-6c-2.6-2.7-4.6-5.9-5.9-9.4c-2.8-8-2.8-16.7,0-24.6
	c2.5-6.9,7.8-12.5,14.5-15.4c6.8-2.8,14.4-2.8,21.3,0c3.3,1.4,6.2,3.4,8.7,6c2.6,2.7,4.6,5.9,5.9,9.4c2.9,7.9,2.9,16.7,0,24.6
	c-2.5,6.9-7.8,12.5-14.5,15.4C365,251.5,357.4,251.5,350.6,248.7 M366.6,237.1c1.7-0.7,3.1-1.8,4.2-3.2c1.3-1.6,2.2-3.4,2.8-5.3
	c1.3-4.6,1.3-9.5,0-14.1c-0.6-1.9-1.5-3.8-2.8-5.3c-1.1-1.4-2.5-2.5-4.2-3.2c-3.3-1.5-7.2-1.5-10.5,0c-1.7,0.7-3.1,1.8-4.2,3.2
	c-1.3,1.6-2.2,3.4-2.8,5.3c-1.3,4.6-1.3,9.5,0,14.1c0.6,1.9,1.5,3.8,2.8,5.3C355.5,238.1,361.5,239.4,366.6,237.1"/>
<path style="fill:#FFFFFF;" d="M444.5,249.7h-15.4l-9.9-15.7c-0.7,0-1.5,0.1-2.2,0.1h-5.5v15.5h-14v-57.2h12.7c4.5,0,9,0.3,13.4,1.1
	c3.5,0.5,6.7,1.8,9.6,3.8c2.5,1.6,4.5,3.9,5.9,6.6c1.4,3.1,2.1,6.4,2,9.8c0.1,3.4-0.7,6.8-2.2,9.8c-1.6,2.8-3.9,5.1-6.7,6.6
	L444.5,249.7z M414.4,222.1c4.9,0,8.2-0.7,10.1-2.1c3.4-3,3.8-8.2,0.8-11.6l-0.8-0.8c-1.8-1.4-5.2-2.1-10.1-2.1h-2.9v16.8
	L414.4,222.1L414.4,222.1z"/>
<path style="fill:#FFFFFF;" d="M457.5,249c-2.9-0.7-5.8-1.6-8.5-2.8l4.2-11.9c1,0.4,2.1,0.8,3.4,1.3c1.5,0.5,3,0.9,4.5,1.1
	c1.8,0.4,3.5,0.7,5.3,0.8c1.9,0.3,3.9,0.4,5.9,0.4c2.1,0.1,4.2-0.2,6.1-0.8c1.4-0.5,2.4-1.9,2.2-3.4c0-0.8-0.3-1.5-0.8-2.1
	c-0.6-0.7-1.4-1.2-2.2-1.7c-1.1-0.5-2.2-1-3.4-1.4l-4.1-1.4c-2.2-0.7-4.6-1.5-6.9-2.4c-2.2-0.9-4.4-2.1-6.3-3.5
	c-1.8-1.4-3.4-3.2-4.5-5.2c-1.2-2.3-1.8-4.9-1.7-7.6c-0.1-2.8,0.5-5.6,1.8-8.1c1.2-2.1,2.9-3.9,5-5.2c2.3-1.4,4.8-2.4,7.4-2.8
	c3-0.6,6-0.8,9.1-0.8c3.8,0,7.6,0.3,11.3,1.1c2.2,0.4,4.4,1,6.4,1.8l-3.8,12.2c-2.3-0.8-4.7-1.3-7.1-1.7c-2.8-0.4-5.6-0.7-8.4-0.7
	c-1.8-0.1-3.6,0.2-5.3,0.7c-1.4,0.3-2.3,1.5-2.2,2.9c0,0.8,0.3,1.5,0.8,2.1c0.6,0.7,1.4,1.2,2.2,1.7c1.1,0.5,2.2,1,3.4,1.4l4.1,1.4
	c2.3,0.7,4.6,1.6,6.9,2.5c2.2,0.8,4.3,2,6.3,3.4c1.8,1.4,3.4,3.2,4.5,5.2c1.3,2.3,1.8,4.9,1.7,7.6c0,2.4-0.4,4.8-1.3,7
	c-0.9,2.2-2.3,4-4.2,5.5c-2.3,1.7-4.9,2.9-7.7,3.5c-3.8,1-7.8,1.4-11.8,1.3C465.7,250.3,461.6,249.8,457.5,249"/>
<path style="fill:#FFFFFF;" d="M129.7,158.5c24.2-4.9,48.6-8.4,73.2-10.6c12.3-1.1,24.6-2.1,37.1-2.7s24.8-1,37.2-1.1
	c24.8-0.3,49.7,0.3,74.3,1.8c12.3,0.8,24.8,2,36.9,3.4s24.5,3.1,36.6,5.5c0.9,0.1,1.5,0.9,1.4,1.8c0,0,0,0,0,0v0.1
	c-0.3,0.9-1.1,1.4-2,1.3l0,0c-12.2-1.1-24.5-2-36.8-2.9s-24.5-1.5-36.8-2.1c-24.5-1.3-49.1-2.1-73.7-2.1c-12.3,0-24.6,0.3-36.8,0.7
	s-24.5,1.1-36.8,2c-24.5,1.8-48.8,4.3-73,8.1c-1,0.2-2-0.4-2.2-1.4c-0.1-0.8,0.5-1.6,1.3-1.7C129.6,158.5,129.7,158.5,129.7,158.5
	L129.7,158.5"/>
<path style="fill:#FFFFFF;" d="M141.8,141.6c-3.8-2-5.7-4.2-5.9-7.7c-0.2-1.7,0-3.4,0.6-5c0.4-1,0.8-1,1.5-0.4
	c6.7,5.9,15.4,8.9,24.3,8.2c10.4-0.6,18.6-4.6,18.3-9.4c-0.4-8.2-29.1-9.5-30.2-26.9c-1.4-18.9,33.6-42.3,55.1-43
	c9.5-0.3,14.3,3.9,14.4,9S216.6,77.4,212,82c-5.2,5.3-11.9,10.2-17.6,10.3c-2,0.1-3.6,0-3.6-0.7s3.8-1.7,10.5-8.5
	c4.9-4.9,9-10.6,8.8-15.1c-0.1-2.7-2.4-4.3-6.1-4.2c-15.5,0.8-43.6,22.4-42.8,35.5c0.7,12.2,26.4,13.6,27,25.7
	c0.4,8.7-11.2,18.5-29,19.4C153.4,144.8,146.1,143.7,141.8,141.6"/>
<path style="fill:#FFFFFF;" d="M219.1,135.6c-3.9,0.1-6-8-6-8s-9.2,8.7-14,8.8c-3.5,0.1-5.3-1.5-5.6-4.8
	c-0.6-6.9,9.4-20.4,17.4-28.7c0.2-0.3,0.6-0.4,1-0.2c0,0,0,0,0,0l0.1,0.1c0.8,0.8,1.6,1.7,2.1,2.7c0.6,1.4,0.4,3-0.4,4.2
	c-3.1,5.5-9.4,13.2-9.2,17.2c-0.1,0.5,0.2,1.1,0.7,1.2c0.1,0,0.2,0,0.3,0h0.4c4.3-0.1,15.8-15,19.9-20.4c0.4-0.6,0.8-0.6,1.4,0
	c0.8,0.7,1.3,1.6,1.7,2.5c0.4,1,0.4,2.1,0,3.1c-2,4.2-7,10.9-6.9,13.8c0,0.7,0.5,1.3,1.2,1.3c0.1,0,0.2,0,0.3,0h0.1
	c4.9-0.1,11.5-7.3,15.1-11.9c0.4-0.6,0.7-0.6,1.1,0.1c0.7,1.3,0.6,2.9-0.3,4.1C235.7,125.7,228,135.4,219.1,135.6"/>
<path style="fill:#FFFFFF;" d="M253.1,133.2c-2.1,0.6-5.5,2.1-8.1,2.1c-2.9,0-5.5-1.1-5.6-3.5c0-2,2.8-3.6,7.1-3.8
	c0.8,0,1.8,0.1,2.7,0.1c7.4-3.4,15.2-15.4,12.3-17.4c-1.8-1.3-6,1.3-11.6,6c-14.1,12-31.1,41.7-37.1,58.9c-0.1,0.5-0.6,0.9-1.1,0.8
	c-0.1,0-0.3-0.1-0.4-0.1c-1.5-0.7-2.8-1.8-3.8-3.2c-1.5-2.4-0.8-5,1-9.2c8-19.6,37.9-57.6,41.7-65c0.3-0.7,1-0.7,1.5-0.1
	c0.8,0.7,1.4,1.6,1.8,2.5c0.6,1.3,0.5,2.8-0.3,4.1c-1.4,2.8-6.7,10.6-6.7,10.6s13-11.9,19-11.9c3.4-0.3,6.3,2.2,6.6,5.6v0.8
	c0,6.7-13.4,18.5-13.4,18.5s14.4-7.1,18.6-12.3c0.4-0.6,1-0.6,1.1,0.1c0.6,1.3,0.4,2.8-0.4,3.9C273,126.3,262.3,130.8,253.1,133.2"
	/>
<path style="fill:#FFFFFF;" d="M283.7,136.8c-7.4,0-11.5-4.2-11.5-9.8c0-10.1,13.9-23.1,27-22.9c4.6,0,6.7,2.4,6.4,5.7
	c-0.6,6.3-19.2,9.9-22.9,12.6c-0.3,0.7-0.4,1.4-0.4,2.1c-0.3,2.7,1.6,5.2,4.3,5.6c0,0,0.1,0,0.1,0h1c9.9,0.1,18.6-9.1,22-13.2
	c0.4-0.6,1-0.6,1.1,0.1c0.5,1.3,0.3,2.8-0.6,3.9C306.4,125.8,296.8,136.8,283.7,136.8 M297.9,110.2c0.4-0.8,0.3-1.8-0.8-1.8
	c-3.5,0-13.1,11.3-13.1,11.3C284.4,120.3,296.5,113.3,297.9,110.2"/>
<path style="fill:#FFFFFF;" d="M320,135.4c-3.5-0.1-6.3-2.4-6.1-5.9c0.1-5.9,13.1-17.9,13.1-17.9s-9.9,1.7-11.9,2.9
	c-1.1,0.7-3.1,4.5-4.8,6.4c-0.4,0.6-1,0.6-1.1-0.1c-0.5-1.3-0.3-2.8,0.6-3.9c1-1,1.8-2.1,2.4-3.4c-0.1-0.4-1.5-2.2-1.5-3.6
	c0.1-4.2,5.6-9.1,8.1-9.1c0.9,0.1,1.5,0.8,1.5,1.7v0.3c-0.3,1.4-0.7,2.9-1.1,4.3c0.1,0.3,8.2-2.5,11.6-2.7c1.3-0.2,2.6,0.6,2.9,1.8
	v0.1c0.4,1.3,0.7,2.7,0.7,4.1c0,1.3-0.6,2.6-1.7,3.4c-3.4,3.2-9.5,9.8-9.5,13.6c0,0.7,0.5,1.4,1.2,1.4c0.1,0,0.1,0,0.2,0
	c4.5,0.1,10.8-5.7,15.2-11.1c0.4-0.6,1-0.6,1.1,0.1c0.5,1.3,0.3,2.8-0.6,3.9C336.1,126.5,328.3,135.6,320,135.4"/>
<path style="fill:#FFFFFF;" d="M347.7,108.5c0.4-0.5,1-0.6,1.5-0.3l0.1,0.1c0.9,0.7,1.5,1.7,1.8,2.8c0.4,1.5,0.1,3.2-0.8,4.5
	c-2.2,3.4-7.3,8.5-7.4,11.8c-0.2,1,0.5,2,1.5,2.2h0.4c5.5,0.3,11.9-6.9,15.8-11.2c0.6-0.6,0.8-0.3,1.1,0.1c0.7,1.3,0.5,2.9-0.6,3.9
	c-3.8,4.3-12.7,14.3-21.1,13.9c-4.5-0.1-7.1-2.4-7-7.1C333.3,123.4,341.4,114.2,347.7,108.5 M365.6,96.8c-0.3,4.8-5.3,9.8-10.1,9.5
	c-1.8,0.1-3.4-1.3-3.5-3.2c0,0,0-0.1,0-0.1v-0.7c0.1-3.9,5.2-9.7,10.2-9.4c1.8,0,3.3,1.4,3.5,3.2C365.6,96.4,365.5,96.6,365.6,96.8"
	/>
<path style="fill:#FFFFFF;" d="M382.4,131.2c-1.1-0.3-2.2-0.7-3.2-1.1c-2.1,0.3-9.6,8.2-15.4,8c-4.7-0.1-8.5-4.1-8.4-8.8
	c0,0,0,0,0,0v-0.7c0.6-11.8,13.3-22.7,25.9-22c1.8,0.1,3.6,0.6,5.2,1.4c0.7,0.4,0.7,1.1-0.3,1.3c-10.1,1.8-19.6,11.2-19.9,18.3
	c-0.1,2,0.6,3.4,2.7,3.4c2.5,0.1,7.5-2.4,8.1-3.9c0.1-0.4-0.4-2.1-0.4-3.2c0.3-5,4.8-10.2,8.2-10.1c1.1,0,1.5,0.8,1.5,2.4
	c-0.1,2.8-4.3,9.7-4.2,10.2c0.4,0.2,0.7,0.3,1.1,0.3c3.1,0.1,6.1-2,10.2-6.2c0.6-0.6,1-0.6,1.1,0.1c0.4,1.3,0.2,2.8-0.7,3.9
	C391.4,127.2,387.4,131.5,382.4,131.2"/>
<path style="fill:#FFFFFF;" d="M402.8,139.5c-3.5-0.3-6.1-2.7-5.9-6.1c0.4-5.7,14-17.4,14-17.4s-9.9,1.3-12,2.4
	c-1.3,0.6-3.2,4.3-5,6.3c-0.6,0.6-1,0.6-1.1-0.1c-0.4-1.3-0.2-2.8,0.7-3.9c0.8-0.8,2.7-2.8,2.5-3.2s-1.5-2.2-1.4-3.8
	c0.3-4.2,5.9-8.8,8.5-8.7c0.9,0.1,1.5,0.9,1.4,1.8c0,0,0,0,0,0v0.3c-0.3,1.4-0.8,2.8-1.4,4.2c0.1,0.3,8.4-2.1,11.6-2.1
	c1.3-0.2,2.5,0.6,2.8,1.9c0,0,0,0.1,0,0.1v0.1c0.4,1.3,0.6,2.7,0.6,4.1c0,1.3-0.7,2.5-1.8,3.2c-3.6,3.1-9.9,9.4-10.2,13.2
	c-0.1,0.7,0.5,1.3,1.2,1.4c0,0,0.1,0,0.1,0h0.1c4.5,0.3,10.9-5.3,15.8-10.2c0.6-0.6,1-0.4,1.1,0.3c0.4,1.4,0.1,2.9-0.8,3.9
	C419.4,131.4,411.1,140.1,402.8,139.5"/>
</svg>
